<svg width="282" height="294" viewBox="0 0 282 294" fill="none" xmlns="http://www.w3.org/2000/svg">
<rect x="23" width="224" height="238" rx="8" fill="url(#paint0_linear_55_36)"/>
<path d="M40.8144 90.4658C36.1241 76.2241 35.7972 74.4788 38.9098 73.3758C42.0225 72.2727 49.9533 88.4971 50.8487 90.4658C53.9845 96.6976 56.4015 103.254 58.0546 110.013C59.4759 116.324 61.2525 130.873 61.551 134.378C62.7733 149.164 37.9576 153.646 36.8774 142.155C35.7972 130.664 35.6835 126.936 35.6835 126.936C35.6835 126.936 22.8919 128.137 21.0868 118.726C19.9599 111.367 19.5269 103.921 19.7935 96.4837C19.7935 96.4837 0.321752 93.3142 1.01818 88.2737C1.71462 83.2333 39.8053 93.4259 39.8053 93.4259L40.8144 90.4658Z" fill="#B25E47"/>
<path d="M19.7935 96.4837C19.7935 96.4837 0.321752 93.3142 1.01818 88.2737C1.71462 83.2333 39.8053 93.4259 39.8053 93.4259L40.8144 90.4658C36.1241 76.2241 35.7972 74.4788 38.9098 73.3758C42.0225 72.2727 49.9533 88.4971 50.8487 90.4658" stroke="#914839" stroke-width="1.11146" stroke-linecap="round" stroke-linejoin="round"/>
<path d="M39.7768 93.4258C38.1282 99.7182 38.4101 106.349 40.587 112.485" stroke="#914839" stroke-width="1.11146" stroke-linecap="round" stroke-linejoin="round"/>
<path d="M30.6519 82.521C33.7077 84.0848 36.1097 84.4199 37.0193 80.1474C37.9289 75.8749 33.7077 75.7353 32.2864 75.9587C30.1118 76.3077 29.3443 81.8369 30.6519 82.521Z" fill="#683F1D"/>
<path d="M31.2632 81.4043C30.581 83.6941 30.0836 86.5565 30.0978 86.4727C30.6094 86.724 33.5373 87.7153 33.9921 86.724C34.4498 84.9771 34.7729 83.1989 34.9586 81.4043H31.2632Z" fill="#683F1D"/>
<path d="M28.506 87.8969C26.9 94.8781 18.6565 133.359 18.3864 134.615C18.1164 135.872 18.4717 141.68 18.9834 141.904C19.4951 142.127 22.3376 137.966 23.4036 135.858C24.4696 133.75 33.708 91.569 34.2907 89.6003C35.712 84.8112 29.5578 83.3172 28.506 87.8969Z" fill="#683F1D"/>
<path d="M21.2431 109.72C17.2493 110.628 16.1122 114.37 19.0685 116.855C22.238 119.522 30.0409 118.251 30.4389 114.914C30.8368 111.577 24.5689 108.966 21.2431 109.72Z" fill="#B25E47" stroke="#914839" stroke-width="1.11146" stroke-linecap="round" stroke-linejoin="round"/>
<path d="M20.9158 103.577C16.8225 102.99 15.8134 106.97 18.7412 110.111C21.6691 113.253 31.3197 113.895 31.8598 110.223C32.3999 106.551 23.4031 103.94 20.9158 103.577Z" fill="#B25E47" stroke="#914839" stroke-width="1.11146" stroke-linecap="round" stroke-linejoin="round"/>
<path d="M17.2633 96.7069C22.4084 95.5062 33.5513 102.934 33.1107 105.238C32.5706 108.128 27.3261 108.575 19.8643 105.461C12.8715 102.557 14.7334 97.2934 17.2633 96.7069Z" fill="#B25E47" stroke="#914839" stroke-width="1.11146" stroke-linecap="round" stroke-linejoin="round"/>
<mask id="mask0_55_36" style="mask-type:alpha" maskUnits="userSpaceOnUse" x="18" y="66" width="250" height="173">
<rect x="18.5545" y="66.0592" width="248.835" height="172.418" fill="#C4C4C4"/>
</mask>
<g mask="url(#mask0_55_36)">
<path d="M265.08 152.459C249.104 151.691 235.872 165.863 231.779 182.129C231.651 182.576 231.551 183.079 231.452 183.609C231.012 186.114 230.708 188.64 230.542 191.177C228.837 212.651 230.443 255.405 230.542 256.354C230.613 256.703 219.172 256.354 203.467 255.628C197.668 255.363 191.258 255.069 184.606 254.734C150.722 253.101 110.486 250.895 110.486 250.895L108.055 224.212C108.055 224.212 102.981 232.59 85.6556 249.08C68.3301 265.569 40.6006 256.354 43.5854 235.676C45.4472 222.69 53.2644 213.182 62.716 197.293C65.5585 192.364 68.7138 186.835 71.8264 180.398C75.9624 171.839 79.9989 163.643 83.8506 156.285C85.5419 153.032 87.2048 149.946 88.8109 147.028C94.894 136.011 100.352 127.662 104.744 123.766C117.947 112.038 146.217 118.796 153.75 121.169C164.992 124.759 176.656 126.917 188.458 127.592C205.172 128.737 230.542 135.816 243.988 140.409C251.759 142.967 258.913 147.063 265.008 152.445L265.08 152.459Z" fill="#FED81D"/>
<path d="M276.322 176.838C261.697 162.414 239.482 156.117 217.196 175.637C191.272 198.326 171.374 202.263 142.209 169.13C121.117 145.171 113.783 139.055 88.8677 147.028C94.9508 136.011 100.409 127.662 104.8 123.766C118.004 112.038 146.274 118.796 153.807 121.169C165.049 124.759 176.713 126.917 188.514 127.592C205.229 128.737 230.599 135.816 244.044 140.409C251.816 142.967 258.97 147.063 265.065 152.445C270.821 156.969 274.233 166.031 276.322 176.838Z" fill="#FED81D"/>
<path d="M83.453 218.069C74.1719 227.996 65.7579 206.452 62.7448 197.292C65.5873 192.364 68.7426 186.835 71.8552 180.398C75.9912 171.839 80.0277 163.643 83.8794 156.285C90.7442 166.603 81.4632 176.056 80.8094 180.733C79.1891 193.215 96.8415 203.813 83.453 218.069Z" fill="#FCC71F"/>
<path d="M25.0805 141.541C39.464 144.515 61.8209 131.306 61.8209 131.306C61.8209 131.306 74.1435 185.327 77.3556 197.307C80.5677 209.287 101.148 256.214 61.0534 258.141C35.328 259.37 33.594 211.325 32.0875 195.506C30.5809 179.686 25.0805 141.541 25.0805 141.541Z" fill="#FED81D"/>
<path d="M34.6172 147.712C45.6891 148.48 58.0259 141.164 58.0259 141.164" stroke="#FCC71F" stroke-width="1.11146" stroke-linecap="round" stroke-linejoin="round"/>
<path d="M61.8211 131.306C61.8211 131.306 74.1437 185.327 77.3558 197.307C79.1182 203.841 86.0399 220.778 85.4572 235.131" stroke="#FCC71F" stroke-width="1.11146" stroke-linecap="round" stroke-linejoin="round"/>
<path d="M142.209 129.994C149.316 143.076 168.418 155.643 191.386 138.287C191.386 138.287 193.859 131.083 193.603 131.083C193.347 131.083 145.464 125.386 145.464 125.386L142.209 129.994Z" fill="white"/>
<path d="M161.112 113.769C155.2 112.457 146.615 113.923 140.703 122.845C134.79 131.767 134.037 139.139 134.378 139.055C134.719 138.972 143.63 133.47 147.709 133.819C152.11 134.554 156.458 135.561 160.729 136.835L161.112 113.769Z" fill="white"/>
<path d="M187.776 116.38C187.776 116.38 200.852 116.464 202.614 125.47C204.377 134.476 199.53 145.269 193.603 150.267C187.677 155.266 190.945 143.063 169.697 137.338L187.776 116.38Z" fill="white"/>
<path d="M194.157 126.908C194.157 126.908 186.894 137.757 170.706 138.008C154.517 138.259 151.405 128.765 151.405 128.765C153.153 124.464 155.271 115.291 156.621 108.854C157.474 104.791 158.042 101.873 158.042 101.873C158.042 101.873 160.714 76.4055 188.515 77.9414L188.984 82.1302L194.157 126.908Z" fill="#B25E47"/>
<path d="M156.621 109.05C157.474 104.987 158.042 102.069 158.042 102.069L173.861 94.7803C173.861 94.7803 176.362 112.527 156.621 109.05Z" fill="#914839"/>
<path d="M108.098 224.212C105.867 199.08 105.867 178.806 105.867 178.806" stroke="#FCC71F" stroke-width="1.11146" stroke-linecap="round" stroke-linejoin="round"/>
</g>
<path d="M213.715 285.215C212.36 284.727 211.067 284.085 209.863 283.302C201.762 278.052 201.066 267.817 203.525 255.628C205.429 246.287 209.21 235.801 212.862 225.525C217.041 213.81 221.134 202.375 222.286 193.23C222.456 191.945 222.556 190.716 222.598 189.544C222.809 182.519 224.117 175.569 226.478 168.935C233.158 150.463 247.798 138.832 265.066 152.445C270.752 156.955 274.22 166.017 276.309 176.824C277.062 180.677 277.645 184.755 278.128 188.915C279.72 203.059 279.933 218.237 280.644 229.588C284.126 284.461 270.752 306.354 213.715 285.215Z" fill="#FED81D"/>
<path d="M276.323 176.838C263.744 164.425 245.509 158.03 226.478 168.935C233.158 150.463 247.798 138.832 265.066 152.445C270.822 156.969 274.234 166.031 276.323 176.838Z" fill="#FED81D"/>
<path d="M230.6 256.354C230.671 256.703 219.23 256.354 203.524 255.628C197.725 255.363 191.315 255.07 184.664 254.735C173.293 249.694 166.187 242.406 172.256 231.962C188.771 203.576 219.158 242.908 220.693 214.76C221.759 195.478 226.521 191.303 230.543 191.177C228.837 212.652 230.444 255.377 230.6 256.354Z" fill="#FCC71F"/>
<path d="M234.48 173.752C232.222 179.315 230.892 185.199 230.543 191.177C229.023 212.666 230.444 255.405 230.543 256.354" stroke="#FCC71F" stroke-width="1.11146" stroke-linecap="round" stroke-linejoin="round"/>
<path d="M213.715 285.215C212.359 284.727 211.067 284.085 209.863 283.302C222.925 286.094 242.454 288.538 251.081 281.319C264.654 269.968 256.027 255.419 263.531 247.404C271.036 239.39 281.852 236.807 278.142 188.971C279.734 203.115 279.947 218.292 280.658 229.644C284.126 284.461 270.751 306.354 213.715 285.215Z" fill="#FCC71F"/>
<path d="M181.024 188.943C183.099 179.77 171.388 180.189 171.388 180.189C172.425 171.728 161.027 169.396 158.397 177.634C149.145 174.841 146.217 177.634 144.867 182.423L181.024 188.943Z" fill="#DDDDDD"/>
<path d="M165.234 181.069C166.764 181.069 168.005 179.85 168.005 178.346C168.005 176.842 166.764 175.623 165.234 175.623C163.703 175.623 162.462 176.842 162.462 178.346C162.462 179.85 163.703 181.069 165.234 181.069Z" fill="#F9F9F9" stroke="#DDDDDD" stroke-width="1.49409" stroke-linecap="round" stroke-linejoin="round"/>
<path d="M127.271 175.637L109.988 267.706L178.622 281.319L197.056 189.125L127.271 175.637Z" fill="#F9F9F9" stroke="#DDDDDD" stroke-width="1.49409" stroke-linecap="round" stroke-linejoin="round"/>
<path d="M148.419 236.639C144.909 245.603 144.71 255.014 146.316 258.169C146.316 258.169 152.868 259.356 159.406 241.917L148.419 236.639Z" fill="#FCC71F"/>
<path d="M157.359 219.354C141.654 214.062 134.15 210.851 131.321 210.097C128.493 209.343 118.274 208.505 116.639 210.097C115.918 210.859 115.425 211.802 115.214 212.822C115.004 213.842 115.084 214.899 115.445 215.877C115.986 218.013 114.252 219.563 114.024 221.727C113.797 223.891 116.426 224.52 115.872 226.67C115.318 228.82 113.598 231.152 114.792 233.512C115.986 235.871 113.598 238.315 115.872 241.205C118.146 244.095 141.299 245.477 146.373 244.416L156.322 248.787C156.322 248.787 173.875 231.012 157.359 219.354Z" fill="#B25E47"/>
<path d="M131.264 210.055C128.422 209.315 118.217 208.463 116.582 210.055C115.861 210.817 115.368 211.76 115.158 212.78C114.947 213.8 115.027 214.857 115.389 215.835C115.929 217.972 114.195 219.521 113.967 221.686C113.74 223.85 116.369 224.478 115.815 226.628C115.261 228.779 113.541 231.11 114.735 233.47C115.929 235.83 113.541 238.273 115.815 241.163" stroke="#914839" stroke-width="1.11146" stroke-linecap="round" stroke-linejoin="round"/>
<path d="M251.165 281.319C247.086 288.566 236.852 292.07 217.452 286.304C212.207 284.754 207.147 283.134 202.315 281.501C194.299 278.806 186.908 276.041 180.285 273.403C168.734 268.889 157.425 263.8 146.401 258.155C149.308 254.982 151.652 251.353 153.337 247.418C154.397 245.083 155.266 242.669 155.938 240.2C157.75 233.369 158.232 226.263 157.36 219.256C160.003 220.038 162.846 220.829 165.887 221.63C173.122 223.57 181.223 225.595 189.438 227.717C214.055 234.084 239.652 241.387 245.892 250.462C246.46 251.286 247 252.138 247.512 253.003C247.711 253.338 247.924 253.687 248.109 254.037C248.167 254.127 248.219 254.22 248.265 254.316C248.493 254.721 248.72 255.154 248.933 255.572C249.322 256.308 249.677 257.048 249.999 257.792C253.567 266.1 254.604 275.092 251.165 281.319Z" fill="#FED81D"/>
<path d="M157.36 219.354C185.544 227.731 236.654 237.212 245.835 250.56C247.422 252.88 248.796 255.333 249.943 257.89" stroke="#FCC71F" stroke-width="1.11146" stroke-linecap="round" stroke-linejoin="round"/>
<path d="M165.774 221.686C167.522 239.041 158.397 255.698 158.397 255.698" stroke="#FCC71F" stroke-width="1.11146" stroke-linecap="round" stroke-linejoin="round"/>
<path d="M251.08 281.319C247 288.566 236.767 292.07 217.366 286.304C212.122 284.754 207.062 283.134 202.23 281.501C213.586 284.447 240.505 290.171 251.08 281.319Z" fill="#FCC71F"/>
<path d="M188.515 78.095L188.998 82.2837C179.148 97.3493 165.703 102.069 158.042 102.069C145.393 98.9689 141.072 87.785 140.333 75.7912C140.143 72.9182 140.133 70.0365 140.305 67.1624C140.9 59.0229 142.328 50.9631 144.568 43.105C144.568 43.105 182.56 25.7357 185.189 60.6C185.189 60.6 193.333 59.2037 194.854 68.042C196.033 75.3863 188.515 78.095 188.515 78.095Z" fill="#B25E47"/>
<path d="M146.402 67.2045C147.242 67.2045 147.923 66.5356 147.923 65.7105C147.923 64.8854 147.242 64.2166 146.402 64.2166C145.562 64.2166 144.882 64.8854 144.882 65.7105C144.882 66.5356 145.562 67.2045 146.402 67.2045Z" fill="#683F1D"/>
<path d="M156.977 65.3055C157.817 65.3055 158.497 64.6366 158.497 63.8115C158.497 62.9864 157.817 62.3175 156.977 62.3175C156.137 62.3175 155.456 62.9864 155.456 63.8115C155.456 64.6366 156.137 65.3055 156.977 65.3055Z" fill="#683F1D"/>
<path d="M154.66 55.7971C154.831 57.8217 161.909 58.5896 162.307 57.4587C162.918 55.7134 154.291 51.022 154.66 55.7971Z" fill="#683F1D"/>
<path d="M141.172 58.7849C141.172 59.888 148.876 60.4046 148.591 56.4951C148.406 53.7165 141.343 55.769 141.172 58.7849Z" fill="#683F1D"/>
<path d="M183.129 71.6164C186.298 67.0088 191.315 67.5114 191.841 68.3911" stroke="#914839" stroke-width="1.11146" stroke-linecap="round" stroke-linejoin="round"/>
<path d="M184.478 70.0387C189.154 67.344 191.699 73.3897 185.786 73.3897" stroke="#914839" stroke-width="1.11146" stroke-linecap="round" stroke-linejoin="round"/>
<path d="M150.495 61.3822C151.775 63.8256 151.675 65.2917 150.822 66.8695C149.969 68.4472 147.397 72.0077 148.747 75.1632" stroke="#914839" stroke-width="1.11146" stroke-linecap="round" stroke-linejoin="round"/>
<path d="M158.782 75.7076C157.659 79.4915 153.096 81.8651 150.893 81.3764C150.893 81.3764 153.096 87.2546 156.977 85.7467C161.439 84.0293 158.782 75.7076 158.782 75.7076Z" fill="white" stroke="#914839" stroke-width="1.11146" stroke-linecap="round" stroke-linejoin="round"/>
<path d="M182.432 77.0061C183.31 77.5993 184.306 78.003 185.355 78.1907C186.403 78.3785 187.48 78.3459 188.515 78.0952" stroke="#914839" stroke-width="1.11146" stroke-linecap="round" stroke-linejoin="round"/>
<path d="M196.233 56.9978C200.61 62.89 194.044 65.3753 194.044 65.3753C193.373 64.4313 192.494 63.6485 191.471 63.0855C190.825 62.7126 190.103 62.4857 189.356 62.4214C188.61 62.3571 187.858 62.4569 187.156 62.7136C186.454 62.9703 185.818 63.3775 185.296 63.9055C184.774 64.4335 184.378 65.0692 184.138 65.7663C175.198 65.9478 179.049 59.0922 179.049 59.0922C171.033 62.2337 170.777 54.1774 174.231 50.5332C167.977 57.4306 160.018 50.5332 161.326 44.3199C159.109 51.1056 151.22 51.3011 152.272 45.7161C151.594 46.8767 150.773 47.9506 149.828 48.9135C144.398 54.2612 139.552 48.5365 141.584 44.3059C133.454 51.9155 129.929 43.3983 137.69 38.8186C131.55 33.8759 138.798 26.8388 143.759 30.4411C142.636 21.6867 151.817 21.2957 155.854 26.406C157.446 16.7858 169.697 22.0357 170.195 26.6015C179.22 20.4021 186.213 24.9818 185.303 35.0488C188.956 30.2596 196.773 33.0661 193.831 45.3531C201.264 44.8225 202.557 53.9959 196.233 56.9978Z" fill="#683F1D"/>
<path d="M191.471 63.0856C190.825 62.7127 190.103 62.4859 189.356 62.4216C188.61 62.3572 187.858 62.4571 187.156 62.7138C186.454 62.9705 185.818 63.3776 185.296 63.9057C184.774 64.4337 184.378 65.0693 184.137 65.7664C175.198 65.9479 179.049 59.0924 179.049 59.0924C171.033 62.2339 170.777 54.1776 174.231 50.5333C167.977 57.4308 160.018 50.5333 161.326 44.32C159.108 51.1058 151.22 51.3013 152.272 45.7163C151.594 46.8769 150.773 47.9508 149.827 48.9137C147.639 42.3932 152.542 33.7923 160.032 37.7437C161.013 32.5078 173.265 29.1149 173.193 42.3792C177.727 36.152 187.989 38.2882 183.143 50.1424C186.952 47.1823 195.735 52.0413 191.471 63.0856Z" fill="#683F1D"/>
<path d="M175.027 65.3893C176.107 67.5116 174.075 70.6672 170.479 72.4404C166.883 74.2136 163.088 73.8367 161.951 71.7842C160.814 69.7317 162.903 66.5063 166.499 64.7331C170.095 62.9599 173.933 63.267 175.027 65.3893Z" fill="#914839"/>
<path d="M145.052 73.4735C144.498 74.9815 142.622 75.7913 140.305 75.7494C140.126 72.8898 140.126 70.0221 140.305 67.1625C143.745 68.6425 145.848 71.3512 145.052 73.4735Z" fill="#914839"/>
<defs>
<linearGradient id="paint0_linear_55_36" x1="73.5" y1="238" x2="73.5" y2="4.09736e-07" gradientUnits="userSpaceOnUse">
<stop stop-color="#7879F1"/>
<stop offset="1" stop-color="#BABAF6" stop-opacity="0"/>
</linearGradient>
</defs>
</svg>
