<svg width="243" height="251" viewBox="0 0 243 251" fill="none" xmlns="http://www.w3.org/2000/svg">
<path d="M0 20C0 15.5817 3.58339 12 8.00167 12C88.3032 12 136.697 12 216.998 12C221.417 12 225 15.5817 225 20V243C225 247.418 221.418 251 217 251H8C3.58172 251 0 247.418 0 243V20Z" fill="url(#paint0_linear_55_34)" fill-opacity="0.5"/>
<path d="M72.7022 102.927C72.9551 94.1692 78.8842 87.378 81.5115 84.1009C84.1389 80.8238 79.8817 78.3276 81.5115 71.1738C84.0125 60.199 97.0087 66.3627 97.0087 48.6943C97.0087 43.1999 98.3294 42.0285 98.3294 42.0285C98.3294 42.0285 88.5787 20.7483 106.268 13.6921C106.268 13.6921 107.841 4.65565 123.915 0.611575C139.988 -3.4325 154.459 13.0227 144.048 36.8688L143.261 55.6947C144.768 55.9677 146.143 56.7216 147.178 57.8418C148.213 58.9621 148.85 60.3872 148.994 61.9003C150.174 69.8769 160.445 64.9124 160.978 85.6069L72.7022 102.927Z" fill="#7F542D"/>
<path d="M110.047 74.939C102.067 77.3933 95.8004 76.9471 95.8004 69.863C95.8004 63.2251 104.076 59.683 102.727 48.9453C101.378 38.2076 103.472 33.02 107.139 28.3484C110.806 23.6768 116.089 7.77939 129.099 10.5963C142.109 13.4132 144.048 36.7991 144.048 36.7991L137.178 58.5674C137.178 58.5674 145.608 70.1698 143.135 74.3951C140.662 78.6205 110.047 74.939 110.047 74.939Z" fill="#683F1D"/>
<path d="M141.224 59.5575C141.224 59.5575 147.799 59.6551 146.113 68.064C145.517 70.9334 145.91 73.9186 147.23 76.5391C148.55 79.1596 150.721 81.2632 153.391 82.5111" stroke="#BF8228" stroke-width="1.3023" stroke-linecap="round" stroke-linejoin="round"/>
<path d="M106.267 19.7167C98.9615 28.2232 101.786 36.7018 101.786 36.7018" stroke="#BF8228" stroke-width="1.3023" stroke-linecap="round" stroke-linejoin="round"/>
<path d="M99.1727 64.6896C91.2344 68.7197 86.612 76.6126 91.5576 84.2127C92.5689 85.7065 93.2355 87.4034 93.5099 89.1824C93.7844 90.9614 93.6598 92.7785 93.1453 94.5042" stroke="#BF8228" stroke-width="1.3023" stroke-linecap="round" stroke-linejoin="round"/>
<path d="M106.268 13.6923C106.268 13.6923 112.141 15.3796 113.827 18.9914" stroke="#BF8228" stroke-width="1.3023" stroke-linecap="round" stroke-linejoin="round"/>
<path d="M118.084 13.1624C118.084 13.1624 131.22 1.16965 140.634 12.0468" stroke="#BF8228" stroke-width="1.3023" stroke-linecap="round" stroke-linejoin="round"/>
<path d="M147.715 51.4553C147.996 66.5718 137.557 70.3928 132.527 70.6996C120.992 71.104 110.314 58.149 106.745 53.2403C106.619 52.2223 106.478 51.1904 106.31 50.1306C99.4534 51.5251 96.6434 48.4014 95.8706 43.6043C95.0979 38.8071 100.999 33.2431 108.642 39.4207C115.808 34.5121 116.805 27.7069 115.302 21.6547C116.992 19.244 119.414 17.4324 122.214 16.4841C125.015 15.5358 128.047 15.5006 130.869 16.3834C138.878 18.6983 144.456 29.5616 146.661 41.4009C147.163 44.1015 147.491 46.8309 147.645 49.5728C147.673 50.2003 147.701 50.8278 147.715 51.4553Z" fill="#FEBD9D"/>
<path d="M135.59 24.7784C135.843 26.7865 141.07 27.1073 143.416 25.9359C145.762 24.7645 134.944 19.047 135.59 24.7784Z" fill="#7F542D"/>
<path d="M119.404 29.0877C118.997 30.8727 124.125 28.5299 125.994 28.3904C127.862 28.251 128.804 27.4422 127.904 25.1691C127.005 22.8961 120.261 25.2528 119.404 29.0877Z" fill="#7F542D"/>
<path d="M129.647 39.4349C130.501 39.4349 131.193 38.7481 131.193 37.9009C131.193 37.0537 130.501 36.3669 129.647 36.3669C128.794 36.3669 128.102 37.0537 128.102 37.9009C128.102 38.7481 128.794 39.4349 129.647 39.4349Z" fill="#683F1D"/>
<path d="M140.564 35.5721C141.418 35.5721 142.11 34.8853 142.11 34.0381C142.11 33.1909 141.418 32.5042 140.564 32.5042C139.711 32.5042 139.019 33.1909 139.019 34.0381C139.019 34.8853 139.711 35.5721 140.564 35.5721Z" fill="#683F1D"/>
<path d="M135.899 33.2153C135.786 37.7893 138.006 39.3651 138.554 39.895C139.805 41.1083 142.769 39.895 141.364 44.3435" stroke="#F4A789" stroke-width="1.3023" stroke-linecap="round" stroke-linejoin="round"/>
<path d="M130.56 52.2364C132.555 50.2701 140.128 50.6745 140.985 51.4554C141.842 52.2364 140.395 55.639 137.107 55.639C133.82 55.639 129.633 53.1707 130.56 52.2364Z" fill="white" stroke="#F4A789" stroke-width="1.3023" stroke-linecap="round" stroke-linejoin="round"/>
<path d="M100.184 44.1066C101.926 41.5685 105.551 42.4192 106.998 43.6882C102.32 42.9212 101.884 48.0948 107.139 46.7282" stroke="#F4A789" stroke-width="1.3023" stroke-linecap="round" stroke-linejoin="round"/>
<path d="M131.066 48.7918C130.322 50.9533 126.43 51.5808 122.341 50.1863C118.253 48.7918 115.555 46.0027 116.286 43.8134C117.016 41.624 120.922 41.0243 124.997 42.4189C129.071 43.8134 131.797 46.6303 131.066 48.7918Z" fill="#F4A789"/>
<path d="M147.589 49.5448C145.664 49.9074 144.062 49.5448 143.374 48.499C142.208 46.7837 143.655 43.7297 146.661 41.387C147.143 44.0842 147.453 46.8089 147.589 49.5448Z" fill="#F4A789"/>
<path d="M102.123 51.4554C102.12 52.117 102.316 52.7643 102.685 53.3151C103.054 53.8659 103.58 54.2952 104.196 54.5484C104.812 54.8015 105.489 54.867 106.143 54.7365C106.796 54.6061 107.396 54.2856 107.865 53.8158C108.334 53.3461 108.652 52.7483 108.778 52.0987C108.904 51.4491 108.832 50.7769 108.572 50.1679C108.312 49.5589 107.875 49.0405 107.317 48.6787C106.759 48.3169 106.105 48.1282 105.439 48.1365C104.558 48.1475 103.717 48.5015 103.096 49.1224C102.476 49.7432 102.126 50.5811 102.123 51.4554Z" fill="#A7CAF0"/>
<path d="M237.508 98.5758L221.126 119.633C221.126 119.633 199.208 207.11 188.179 214.46C184.688 216.746 180.685 218.149 176.521 218.546C172.357 218.942 168.159 218.319 164.294 216.733C164.3 216.682 164.3 216.63 164.294 216.579C164.294 216.37 154.459 208.407 156.398 196.373C156.566 195.257 178.456 157.703 187.842 141.164C195.344 127.833 204.463 112.605 204.463 112.605L237.508 98.5758Z" fill="#FEBD9D"/>
<path d="M204.477 112.632C204.477 112.632 205.756 92.8722 206.205 90.6549C206.655 88.4377 220.101 75.5942 222.012 74.5762C223.923 73.5582 235.837 77.0585 236.806 78.1322C237.776 79.206 236.68 81.7579 233.477 81.5627C230.273 81.3675 233.027 89.0652 233.027 89.0652C233.027 89.0652 238.211 94.5038 237.439 98.5757C237.439 98.5757 217.347 118.671 217.094 118.601C216.841 118.531 204.477 112.632 204.477 112.632Z" fill="#FEBD9D"/>
<path d="M204.477 112.632C204.477 112.632 205.756 92.8722 206.205 90.6549C206.655 88.4377 220.101 75.5942 222.012 74.5762C223.923 73.5582 235.837 77.0585 236.806 78.1322C237.776 79.206 236.68 81.7579 233.477 81.5627C230.273 81.3675 233.027 89.0652 233.027 89.0652C233.027 89.0652 238.211 94.5038 237.439 98.5757C237.439 98.5757 217.347 118.671 217.094 118.601C216.841 118.531 204.477 112.632 204.477 112.632Z" fill="#FEBD9D"/>
<path d="M206.206 90.6549C206.599 88.3958 220.101 75.5942 222.054 74.5762C224.007 73.5582 235.879 77.0585 236.849 78.1322C237.818 79.206 236.722 81.7579 233.519 81.5627" stroke="#F4A789" stroke-width="1.3023" stroke-linecap="round" stroke-linejoin="round"/>
<path d="M225.412 82.5253C225.594 82.079 233.097 79.5968 234.376 80.0431C235.654 80.4893 241.794 90.6553 241.991 92.6773C242.187 94.6994 239.265 103.638 236.609 102.843C233.954 102.048 236.722 94.4762 236.722 94.4762L225.412 82.5253Z" fill="#FEBD9D" stroke="#F4A789" stroke-width="1.3023" stroke-linecap="round" stroke-linejoin="round"/>
<path d="M230.596 100.124C232.759 101.518 235.288 98.255 236.722 94.5456L231.888 90.5852C231.888 90.5852 227.392 98.0179 230.596 100.124Z" fill="#FEBD9D" stroke="#F4A789" stroke-width="1.3023" stroke-linecap="round" stroke-linejoin="round"/>
<path d="M237.874 91.6173L239.448 95.5219C239.494 95.6371 239.508 95.7627 239.488 95.8852C239.467 96.0076 239.414 96.1223 239.333 96.2169C239.252 96.3114 239.147 96.3824 239.029 96.4221C238.91 96.4618 238.783 96.4688 238.661 96.4423L234.516 95.5777L199.925 66.6416C199.664 66.423 199.448 66.1553 199.291 65.854C199.134 65.5526 199.039 65.2235 199.01 64.8854C198.981 64.5473 199.02 64.2069 199.124 63.8837C199.228 63.5605 199.395 63.2609 199.616 63.0019C200.061 62.475 200.699 62.1452 201.39 62.085C202.08 62.0249 202.766 62.2393 203.297 62.6812L237.874 91.6173Z" fill="#683F1D"/>
<path d="M215.492 89.8602C219.384 84.2822 223.655 79.9034 225.734 79.4014C228.868 78.6484 229.57 82.3299 222.208 92.9979C223.404 96.0414 223.589 99.3842 222.737 102.54C221.886 105.695 220.041 108.498 217.473 110.541" fill="#FEBD9D"/>
<path d="M215.492 89.8602C219.384 84.2822 223.655 79.9034 225.734 79.4014C228.868 78.6484 229.57 82.3299 222.208 92.9979C223.404 96.0414 223.589 99.3842 222.737 102.54C221.886 105.695 220.041 108.498 217.473 110.541" stroke="#F4A789" stroke-width="1.3023" stroke-linecap="round" stroke-linejoin="round"/>
<path d="M183.922 155.332C183.683 156.448 181.927 159.655 181.674 160.757C176.56 182.316 168.017 203.164 164.308 216.677C163.267 220.597 162.428 224.567 161.793 228.572C159.924 239.868 159.334 250.494 159.334 250.494L75.1888 248.932L65.0025 248.751L65.3959 206.037L65.4802 197.056C65.4802 197.056 41.4266 195.411 41.2439 195.899C41.0613 196.387 42.4101 182.846 42.4101 182.846C34.528 173.865 33.9801 160.715 35.9892 152.794C37.2959 147.495 42.6489 133.271 48.1425 121.292C50.3384 116.278 52.9121 111.434 55.8419 106.804C62.7545 96.6515 67.0819 95.8845 76.102 94.0438C85.1221 92.203 100.549 84.1428 100.549 84.1428L129.745 80.8936C129.745 80.8936 145.031 81.9534 158.66 81.3816C171.614 80.8378 178.892 83.7384 184.582 95.5777C184.877 96.1913 185.186 96.8467 185.481 97.5301C189.696 107.292 193.462 121.139 195.316 128.307C189.472 142.168 183.922 155.332 183.922 155.332Z" fill="#FED81D"/>
<path d="M184.582 95.5083C172.639 94.2253 165.179 104.057 156.412 122.687C145.944 144.874 123.113 147.928 101.251 130.538C81.9886 115.199 67.8683 111.587 48.1421 121.223C50.338 116.208 52.9118 111.365 55.8415 106.734C62.7541 96.5821 67.0815 95.8151 76.1017 93.9743C85.1218 92.1336 100.549 84.0733 100.549 84.0733L129.745 80.8241C129.745 80.8241 145.031 81.8839 158.66 81.3122C171.614 80.7683 178.892 83.6689 184.582 95.5083Z" fill="#FED81D"/>
<path d="M77.6056 190.879L85.4174 141.388C87.5952 144.707 93.5946 149.308 91.6557 158.666C86.7241 182.302 103.177 163.588 109.583 174.953C112.239 179.639 89.7589 187.406 77.6056 190.879Z" fill="#FCC71F"/>
<path d="M106.127 80.6707C103.865 79.6945 100.507 82.9019 100.507 84.0733C100.507 85.2447 103.823 95.4804 108.249 100.291C112.674 105.102 120.739 106.12 123.802 94.8807C131.979 103.331 139.973 100.152 138.863 89.8744C137.754 79.5969 130.433 77.6167 130.433 77.6167L106.127 80.6707Z" fill="white"/>
<path d="M76.9033 195.341L77.6058 190.879L85.4176 141.346L87.8623 125.867" stroke="#FCC71F" stroke-width="1.3023" stroke-linecap="round" stroke-linejoin="round"/>
<path d="M42.4099 182.777C54.3593 178.967 66.9824 177.693 79.4598 179.039" stroke="#FCC71F" stroke-width="1.3023" stroke-linecap="round" stroke-linejoin="round"/>
<path d="M128.325 111.42C130.056 111.42 131.459 110.027 131.459 108.31C131.459 106.592 130.056 105.2 128.325 105.2C126.595 105.2 125.192 106.592 125.192 108.31C125.192 110.027 126.595 111.42 128.325 111.42Z" fill="white"/>
<path d="M131.473 124.472C133.204 124.472 134.606 123.08 134.606 121.362C134.606 119.645 133.204 118.253 131.473 118.253C129.743 118.253 128.34 119.645 128.34 121.362C128.34 123.08 129.743 124.472 131.473 124.472Z" fill="white"/>
<path d="M49.2383 226.453C36.0172 221.935 40.0917 201.798 41.6231 191.269L56.3897 187.727L79.0103 182.317C79.0103 182.317 82.8459 231.71 49.2383 226.453Z" fill="#FEBD9D"/>
<path d="M132.527 70.7138C132.527 70.9927 132.33 76.1943 132.19 79.9315C132.19 81.5771 132.063 82.9437 132.035 83.4596C131.951 85.1888 128.256 92.3845 120.528 90.4322C112.801 88.4799 106.31 81.8839 106.113 80.6706C105.916 79.4574 109.457 69.5145 107.518 54.3702C114.318 46.5609 134.072 51.4557 132.527 70.7138Z" fill="#FEBD9D"/>
<path d="M132.527 70.6999C132.527 70.6999 132.33 76.0827 132.176 79.9316C126.865 79.2064 116.721 76.0827 117.353 62.5839C119.587 65.8888 127.23 70.937 132.527 70.6999Z" fill="#F4A789"/>
<path d="M197.045 148.722C196.959 148.717 196.876 148.692 196.801 148.651C196.725 148.611 196.66 148.554 196.609 148.485L170.94 112.298C170.893 112.232 170.86 112.157 170.843 112.078C170.826 111.999 170.826 111.917 170.841 111.838C170.861 111.761 170.895 111.69 170.944 111.627C170.992 111.565 171.053 111.513 171.122 111.475C172.743 110.451 174.6 109.851 176.518 109.732C180.733 109.732 184.948 113.581 191.116 123.021C202.608 140.537 198.913 146.979 197.508 148.527C197.454 148.589 197.387 148.638 197.312 148.672C197.237 148.705 197.155 148.723 197.073 148.722H197.045Z" fill="#F9F9F9"/>
<path d="M176.519 110.29C180.158 110.29 184.12 113.414 190.569 123.342C200.123 137.915 199.476 145.418 197.003 148.151L171.475 111.963C173.006 110.979 174.768 110.403 176.589 110.29H176.519ZM176.589 109.16C174.591 109.284 172.658 109.908 170.969 110.973C170.831 111.054 170.711 111.163 170.616 111.291C170.522 111.42 170.455 111.567 170.419 111.722C170.384 111.877 170.381 112.038 170.41 112.195C170.439 112.351 170.5 112.5 170.589 112.633L196.259 148.806C196.361 148.947 196.494 149.064 196.647 149.148C196.8 149.232 196.969 149.282 197.144 149.294C197.306 149.295 197.466 149.263 197.613 149.198C197.761 149.133 197.893 149.037 198.001 148.918C199.406 147.286 203.382 140.551 191.664 122.715C185.342 113.079 180.972 109.16 176.589 109.16Z" fill="#DDDDDD"/>
<path d="M207.597 155.332C207.488 155.333 207.381 155.304 207.288 155.249L196.764 148.639C196.692 148.587 196.632 148.52 196.589 148.443C196.545 148.366 196.519 148.281 196.511 148.192C196.505 148.107 196.518 148.021 196.55 147.942C196.581 147.862 196.631 147.791 196.694 147.732C197.842 146.686 199.351 146.117 200.909 146.143C202.08 146.184 203.23 146.466 204.284 146.973C205.339 147.48 206.276 148.199 207.035 149.085C209.957 152.292 208.173 155.081 208.145 155.109C208.082 155.192 207.998 155.257 207.902 155.296C207.805 155.335 207.7 155.348 207.597 155.332Z" fill="#F9F9F9"/>
<path d="M200.839 146.714C201.932 146.762 203.004 147.035 203.986 147.515C204.967 147.995 205.838 148.672 206.543 149.503C209.198 152.418 207.597 154.83 207.597 154.83L197.073 148.178C198.112 147.269 199.453 146.772 200.839 146.784V146.714ZM200.839 145.64C199.166 145.635 197.552 146.252 196.315 147.37C196.182 147.488 196.078 147.635 196.012 147.799C195.947 147.964 195.92 148.141 195.935 148.318C195.951 148.492 196.005 148.659 196.095 148.809C196.185 148.959 196.308 149.087 196.455 149.182L206.979 155.834C207.165 155.947 207.378 156.009 207.597 156.016C207.787 156.017 207.974 155.97 208.141 155.88C208.309 155.79 208.45 155.659 208.552 155.5C208.65 155.36 210.603 152.306 207.4 148.778C206.593 147.818 205.592 147.036 204.462 146.484C203.332 145.931 202.098 145.62 200.839 145.571V145.64Z" fill="#DDDDDD"/>
<path d="M115.737 142.349L173.792 108.309C173.792 108.309 193.11 128.404 197.073 148.151L135.463 179.876C135.463 179.876 128.663 158.121 115.737 142.349Z" fill="#F9F9F9" stroke="#DDDDDD" stroke-width="1.75064" stroke-linecap="round" stroke-linejoin="round"/>
<path d="M138.372 178.384L153.209 182.776L207.569 154.802C204.676 151.748 201.058 149.461 197.045 148.151L138.372 178.384Z" fill="#DDDDDD" stroke="#DDDDDD" stroke-width="1.75064" stroke-miterlimit="10"/>
<path d="M165.713 160.129C165.151 162.723 159.883 163.337 156.651 163.128C153.42 162.918 142.601 163.546 142.601 163.546C142.601 163.546 148.558 166.739 149.191 167.339C151.128 170.197 152.633 173.321 153.658 176.612C155.218 181.382 154.052 184.24 152.478 183.892C150.905 183.543 150.357 181.103 150.357 181.103C149.809 184.296 147.814 181.647 147.814 181.647C147.814 182.665 142.882 191.408 140.887 189.609C138.892 187.81 141.688 183.418 141.688 183.418H139.651C135.907 186.507 131.96 189.344 127.835 191.91C124.05 194.095 119.908 195.601 115.597 196.359C115.597 196.359 106.071 203.052 94.0724 210.192C79.2636 219.033 60.6614 228.572 51.6553 227.094C49.3072 226.804 47.0879 225.867 45.25 224.388C43.412 222.908 42.029 220.947 41.2583 218.727C41.2643 218.657 41.2643 218.587 41.2583 218.517C41.2583 218.35 41.1038 218.099 41.0054 217.778C39.6004 213.19 36.5937 193.5 78.9405 182.344L79.2074 182.274L109.513 174.855C115.836 168.455 129.9 156.002 132.218 155.332C134.536 154.663 166.261 157.536 165.713 160.129Z" fill="#FEBD9D"/>
<path d="M141.744 183.362C141.744 183.362 138.934 187.783 140.943 189.554C142.952 191.325 147.87 182.581 147.87 181.591C147.87 181.591 149.865 184.241 150.413 181.047C150.413 181.047 150.961 183.557 152.535 183.906C154.108 184.255 155.274 181.382 153.701 176.613C152.692 173.322 151.191 170.201 149.247 167.353C148.629 166.74 142.657 163.546 142.657 163.546C142.657 163.546 153.42 162.933 156.707 163.128C159.995 163.323 165.222 162.723 165.77 160.13C166.318 157.536 134.621 154.691 132.289 155.374C131.122 155.709 127.02 159 122.453 163.002" stroke="#F4A789" stroke-width="1.3023" stroke-linecap="round" stroke-linejoin="round"/>
<path d="M142.658 163.546L137.263 161.426" stroke="#F4A789" stroke-width="1.3023" stroke-linecap="round" stroke-linejoin="round"/>
<path d="M138.667 168.538C138.667 168.538 147.28 172.206 147.87 173.461C149.104 175.845 149.962 178.404 150.413 181.047" stroke="#F4A789" stroke-width="1.3023" stroke-linecap="round" stroke-linejoin="round"/>
<path d="M139.637 174.855C139.637 174.855 146.029 178.774 146.802 179.541C147.328 180.15 147.695 180.878 147.87 181.661" stroke="#F4A789" stroke-width="1.3023" stroke-linecap="round" stroke-linejoin="round"/>
<defs>
<linearGradient id="paint0_linear_55_34" x1="13.5" y1="12" x2="11.5" y2="251" gradientUnits="userSpaceOnUse">
<stop stop-color="#A5A6F6" stop-opacity="0"/>
<stop offset="1" stop-color="#F05EA9"/>
</linearGradient>
</defs>
</svg>
