<svg width="1112" height="497" viewBox="0 0 1112 497" fill="none" xmlns="http://www.w3.org/2000/svg">
<path d="M256.115 1.3277L260.955 5.80769C261.124 5.96111 261.328 6.07196 261.549 6.13109C261.77 6.19021 262.001 6.19592 262.225 6.1477L268.655 4.69769C268.916 4.63284 269.191 4.64433 269.446 4.73077C269.702 4.81722 269.927 4.97501 270.095 5.18545C270.263 5.3959 270.368 5.65018 270.396 5.9182C270.424 6.18621 270.375 6.45672 270.255 6.69769L267.495 12.6977C267.398 12.9046 267.353 13.1319 267.363 13.3601C267.374 13.5883 267.439 13.8105 267.555 14.0077L270.925 19.6777C271.059 19.904 271.127 20.1635 271.122 20.4267C271.117 20.6899 271.038 20.9463 270.894 21.1669C270.75 21.3875 270.548 21.5636 270.309 21.675C270.071 21.7865 269.806 21.829 269.545 21.7977L263.005 21.0277C262.777 20.9992 262.546 21.0271 262.331 21.1091C262.117 21.191 261.925 21.3245 261.775 21.4977L257.425 26.4477C257.253 26.6484 257.028 26.7965 256.776 26.8749C256.524 26.9534 256.255 26.9589 256 26.8909C255.745 26.823 255.514 26.6843 255.335 26.4908C255.155 26.2974 255.034 26.0571 254.985 25.7977L253.695 19.3277C253.647 19.1067 253.546 18.9004 253.402 18.7264C253.257 18.5523 253.073 18.4156 252.865 18.3277L246.865 15.7177C246.621 15.6168 246.411 15.4492 246.258 15.2341C246.106 15.0189 246.017 14.7651 246.002 14.5017C245.988 14.2384 246.048 13.9762 246.175 13.7455C246.303 13.5148 246.494 13.3249 246.725 13.1977L252.485 9.97769C252.684 9.86381 252.853 9.70335 252.976 9.51004C253.1 9.31672 253.175 9.09631 253.195 8.86769L253.805 2.30769C253.824 2.04897 253.913 1.80045 254.064 1.58949C254.215 1.37853 254.421 1.21329 254.66 1.11198C254.899 1.01067 255.161 0.977199 255.418 1.01526C255.674 1.05332 255.916 1.16143 256.115 1.3277V1.3277Z" fill="#DDDDDD" stroke="#DDDDDD" stroke-miterlimit="10"/>
<path d="M1088.09 158.857L1033.43 147.201L1016.52 226.527L1071.17 238.183L1088.09 158.857Z" fill="#DDDDDD"/>
<path d="M1082.32 164.305L1036.47 154.526L1022.28 221.079L1068.13 230.858L1082.32 164.305Z" fill="#F9F9F9"/>
<path d="M1067.78 151.815C1068.09 151.283 1068.31 150.703 1068.43 150.099C1068.59 149.359 1068.61 148.594 1068.47 147.849C1068.33 147.104 1068.05 146.393 1067.63 145.759C1067.22 145.125 1066.68 144.58 1066.05 144.156C1065.43 143.731 1064.72 143.436 1063.98 143.288C1063.24 143.14 1062.47 143.141 1061.73 143.292C1060.99 143.442 1060.28 143.74 1059.65 144.166C1059.03 144.592 1058.49 145.139 1058.08 145.775C1057.67 146.41 1057.39 147.121 1057.25 147.867C1057.14 148.467 1057.12 149.081 1057.19 149.688L1048.94 148.031L1046.85 158.369L1073.95 163.807L1076.03 153.472L1067.78 151.815Z" fill="#DDDDDD" stroke="#DDDDDD" stroke-linecap="round" stroke-linejoin="round"/>
<path d="M1064.37 151.282C1065.64 150.439 1065.98 148.731 1065.13 147.468C1064.29 146.205 1062.58 145.866 1061.32 146.709C1060.06 147.553 1059.72 149.261 1060.56 150.524C1061.4 151.787 1063.11 152.126 1064.37 151.282Z" fill="#F9F9F9"/>
<path d="M1042.37 164.062L1073.63 170.725" stroke="#DDDDDD" stroke-linecap="round" stroke-linejoin="round"/>
<path d="M1041.47 169.478L1072.73 176.149" stroke="#DDDDDD" stroke-linecap="round" stroke-linejoin="round"/>
<path d="M1040.57 174.902L1064.93 180.095" stroke="#DDDDDD" stroke-linecap="round" stroke-linejoin="round"/>
<path d="M48.9254 424.994C25.6954 415.494 14.1754 442.124 22.9254 458.854C24.9854 462.774 24.6854 465.964 22.7354 470.724C20.7854 475.484 20.7354 478.884 26.0054 481.024C31.2754 483.164 33.6054 480.724 35.5554 475.964C37.5054 471.204 39.5554 468.724 43.7354 467.364C61.7154 461.564 72.1654 434.494 48.9254 424.994Z" fill="#F9F9F9" stroke="#DDDDDD" stroke-linecap="round" stroke-linejoin="round"/>
<path d="M25.6838 481.89C24.3338 476.22 24.7838 472.28 28.8438 471.32C32.9038 470.36 36.1638 468.06 34.3838 465.09C32.6038 462.12 25.2238 461.43 27.2438 465.03C29.2638 468.63 39.8938 467.34 37.4038 463.82C34.9138 460.3 28.9738 457.38 31.4038 456.82C33.8338 456.26 41.2638 459.62 38.8638 457C34.0438 451.75 39.6738 450.64 41.2238 445" stroke="#DDDDDD" stroke-linecap="round" stroke-linejoin="round"/>
<path d="M34.7852 483.84C33.9643 485.228 33.2553 486.679 32.6652 488.18C32.2204 489.318 31.6853 490.418 31.0653 491.47C28.8453 495.2 25.8753 496.69 20.6253 494.55C15.3753 492.41 14.3253 489.26 15.3553 485.05C15.6451 483.86 16.033 482.696 16.5152 481.57C17.1371 480.087 17.6485 478.559 18.0453 477C23.1573 480.29 28.8322 482.609 34.7852 483.84V483.84Z" fill="#F9F9F9" stroke="#DDDDDD" stroke-linecap="round" stroke-linejoin="round"/>
<path d="M34.43 483.85C33.6925 485.091 33.0539 486.389 32.52 487.73C32.44 487.88 32.38 488.04 32.31 488.19C31.8651 489.328 31.3301 490.428 30.71 491.48C28.56 491.96 25.8 491.56 22.12 490.05C18.44 488.54 16.19 486.9 15 485.05C15.2898 483.86 15.6778 482.696 16.16 481.57L16.34 481.1C16.8862 479.767 17.3374 478.397 17.69 477C22.8013 480.293 28.4762 482.616 34.43 483.85Z" fill="#F9F9F9" stroke="#DDDDDD" stroke-linecap="round" stroke-linejoin="round"/>
<path d="M34.09 483.84C33.3526 485.081 32.714 486.379 32.1801 487.72C26.3942 486.632 20.8895 484.379 16 481.1C16.5463 479.767 16.9974 478.397 17.35 477C22.4621 480.29 28.137 482.609 34.09 483.84V483.84Z" fill="#F9F9F9" stroke="#DDDDDD" stroke-linecap="round" stroke-linejoin="round"/>
<path d="M8.92999 448L1 449.14" stroke="#DDDDDD" stroke-linecap="round" stroke-linejoin="round"/>
<path d="M13.45 423.13L4 413" stroke="#DDDDDD" stroke-width="2" stroke-linecap="round" stroke-linejoin="round"/>
<path d="M34 413.14V406" stroke="#DDDDDD" stroke-linecap="round" stroke-linejoin="round"/>
<path d="M53 416.75L57.39 406" stroke="#DDDDDD" stroke-width="2" stroke-linecap="round" stroke-linejoin="round"/>
<path d="M72 427.71L77.71 425" stroke="#DDDDDD" stroke-linecap="round" stroke-linejoin="round"/>
<path d="M72 448.52L82.5699 447" stroke="#DDDDDD" stroke-width="2" stroke-linecap="round" stroke-linejoin="round"/>
<path d="M62 463L64.92 468.01" stroke="#DDDDDD" stroke-linecap="round" stroke-linejoin="round"/>
</svg>
