<svg width="249" height="262" viewBox="0 0 249 262" fill="none" xmlns="http://www.w3.org/2000/svg">
<rect y="22" width="225" height="238" rx="8" fill="url(#paint0_linear_55_35)" fill-opacity="0.5"/>
<path d="M109.705 146.039C109.582 148.185 109.336 150.51 108.953 152.917C106.053 171.83 95.6712 198.995 84.1541 215.57C81.846 218.995 79.182 222.162 76.207 225.02C67.1383 233.396 52.7214 234.978 42.6542 229.146C39.6152 227.386 37.0255 224.938 35.0906 221.997C33.1556 219.055 31.9285 215.701 31.5064 212.2C31.0692 209.165 31.0324 206.085 31.397 203.039C33.3256 185.86 44.9658 156.424 59.0134 135.187C60.6138 132.738 62.2552 130.4 63.9239 128.213C71.8573 117.759 80.2558 110.469 87.9293 109.671C89.5159 109.49 91.1224 109.616 92.6619 110.043C105.369 113.674 110.84 123.729 109.705 146.039Z" fill="#F178B6"/>
<path d="M86.4246 156.286C82.5655 169.621 81.02 183.524 81.856 197.386C82.2883 203.503 83.0554 209.592 84.154 215.625C81.8459 219.049 79.1819 222.217 76.2069 225.075C67.1382 233.451 52.7213 235.033 42.6541 229.201C39.6082 227.435 37.0143 224.979 35.079 222.028C33.1436 219.076 31.9203 215.711 31.5063 212.2C40.4519 221.828 49.8079 223.905 57.2215 221.471C67.9042 218.005 74.6202 205.24 70.4894 192.159C63.2536 169.189 79.5854 156.053 87.382 152.27C87.1221 153.563 86.7665 154.925 86.4246 156.286Z" fill="#EF5DA8"/>
<path d="M109.705 146.039C109.582 148.185 109.336 150.51 108.953 152.917C107.612 150.931 106.511 148.794 105.67 146.548C101.717 135.943 94.6044 129.973 86.712 127.388C79.2476 125.048 71.2154 125.32 63.924 128.158C71.8574 117.704 80.2559 110.414 87.9294 109.616C89.516 109.435 91.1225 109.561 92.662 109.988C105.369 113.674 110.84 123.729 109.705 146.039Z" fill="#F178B6"/>
<path d="M140.002 127.828C125.626 129.588 122.534 118.007 122.439 101.46C122.439 97.567 122.562 93.3993 122.781 89.0803C122.895 86.5208 123.169 83.9712 123.601 81.4463C128.498 53.2626 151.697 56.6875 152.887 73.2759C153.352 79.5619 157.77 125.654 140.002 127.828Z" fill="#B25E47"/>
<path d="M139.66 84.0872C138.894 95.2149 130.934 100.937 122.453 101.46C122.453 97.567 122.576 93.3993 122.795 89.0802C122.909 86.5208 123.184 83.9712 123.616 81.4463C128.28 79.4106 140.262 75.064 139.66 84.0872Z" fill="#914839"/>
<path d="M195.317 193.714C194.564 196.261 193.965 198.851 193.525 201.471C193.402 202.187 193.279 202.847 193.169 203.603C188.765 231.223 188.218 256.821 187.917 259.476C187.616 262.13 163.022 261.222 144.734 260.328C137.608 259.971 128.403 260.067 119.703 260.136C106.025 260.246 93.7146 260.273 92.7297 258.334C92.0732 257.082 90.3087 249.723 88.3937 240.288C88.0928 238.829 87.7782 237.316 87.4773 235.776C87.3268 235.006 87.1627 234.222 87.0259 233.438C86.8891 232.654 86.6839 231.636 86.5061 230.687C86.3283 229.738 86.1505 228.761 85.959 227.784C85.576 225.639 85.1793 223.452 84.81 221.292C84.4407 219.133 84.0987 217.001 83.7705 214.91C82.7452 208.867 82.0375 202.775 81.6503 196.657C80.9721 182.784 82.6654 168.896 86.6566 155.599C86.766 155.255 86.8618 154.925 86.9438 154.581C87.0943 154.003 87.2311 153.425 87.3679 152.848C87.4499 152.545 87.5046 152.243 87.573 151.94C87.6414 151.637 87.6961 151.335 87.7508 151.032C87.8056 150.73 87.874 150.427 87.9287 150.124C87.9834 149.822 88.0244 149.533 88.0654 149.23C88.1612 148.639 88.2433 148.047 88.3117 147.47C88.4758 146.094 88.5989 144.622 88.6536 143.247C88.6536 143.054 88.6536 142.862 88.6536 142.683C88.6536 141.706 88.6536 140.743 88.6536 139.794C88.5506 135.414 88.0654 131.05 87.2037 126.755C85.8359 119.423 83.9072 113.921 84.3723 111.391C84.5912 110.139 85.8906 109.396 88.1338 109.066C88.2886 109.053 88.4441 109.053 88.5989 109.066C94.0702 108.406 104.821 109.988 119.348 113.014C119.665 109.73 120.204 106.472 120.962 103.261C121.105 102.761 121.41 102.323 121.828 102.016C122.247 101.71 122.756 101.552 123.273 101.57C125.215 101.63 127.149 101.837 129.059 102.189C132.547 102.519 144.434 100.332 150.548 97.0993C151.78 96.3894 153.136 95.9226 154.542 95.7238C157.469 95.4624 158.481 97.787 158.864 100.951V101.363C158.864 101.515 158.864 101.666 158.864 101.817C158.864 101.968 158.864 102.395 158.933 102.697C159.001 103 158.933 103.151 158.933 103.385V104.321C158.933 104.692 158.933 105.063 158.933 105.448V106.535C158.933 106.714 158.933 106.893 158.933 107.085C158.933 107.278 158.933 107.402 158.933 107.553C158.933 107.704 158.933 107.979 158.933 108.199C158.933 108.42 158.933 108.736 158.933 108.997C158.933 109.259 158.933 109.52 158.933 109.781V110.29C158.933 112.587 158.933 114.32 158.933 114.32C169.971 110.111 186.631 105.82 199.242 113.619C203.351 116.236 206.749 119.837 209.132 124.1C209.782 125.201 210.375 126.335 210.91 127.498C221.688 150.014 202.511 169.161 195.317 193.714Z" fill="#F178B6"/>
<path d="M209.528 124.1C198.873 125.407 186.959 132.353 175.757 145.736C174.02 147.813 172.31 150.028 170.6 152.421C152.613 177.744 121.276 171.032 109.212 152.559C107.9 150.56 106.826 148.413 106.011 146.163C102.154 135.503 95.0688 129.464 87.2448 126.796C85.877 119.465 83.9483 113.963 84.4134 111.432C84.6323 110.18 85.9317 109.437 88.1749 109.107C88.3297 109.095 88.4852 109.095 88.64 109.107C94.1113 108.447 104.862 110.029 119.389 113.055C119.69 109.758 120.216 106.486 120.962 103.261C121.105 102.761 121.41 102.323 121.828 102.016C122.247 101.71 122.756 101.552 123.273 101.57C125.215 101.63 127.149 101.837 129.059 102.189C132.547 102.519 144.434 100.332 150.548 97.0993C151.78 96.3894 153.136 95.9226 154.542 95.7238C157.469 95.4624 158.481 97.787 158.864 100.951V101.363C158.864 101.515 158.864 101.666 158.864 101.817C158.864 101.968 158.864 102.395 158.933 102.697C159.001 103 158.933 103.151 158.933 103.385V104.321C158.933 104.692 158.933 105.063 158.933 105.448V106.535C158.933 106.714 158.933 106.893 158.933 107.085C158.933 107.278 158.933 107.402 158.933 107.553C158.933 107.704 158.933 107.979 158.933 108.199C158.933 108.42 158.933 108.736 158.933 108.997C158.933 109.259 158.933 109.52 158.933 109.781V110.29C158.933 112.587 158.933 114.32 158.933 114.32C169.971 110.111 186.631 105.82 199.242 113.619C203.496 116.184 207.034 119.789 209.528 124.1Z" fill="#F178B6"/>
<path d="M88.3252 142.766C88.291 145.942 87.9752 149.109 87.3814 152.229C87.1215 153.604 86.8069 154.98 86.4239 156.355C82.5649 169.69 81.0194 183.593 81.8554 197.455C82.2877 203.572 83.0548 209.661 84.1534 215.694C84.4953 217.785 84.8646 219.917 85.2613 222.062C86.4376 228.527 87.7781 235.157 89.0365 240.989C91.0609 250.397 92.8938 257.729 93.564 258.98" stroke="#EF5DA8" stroke-width="1.15577" stroke-linecap="round" stroke-linejoin="round"/>
<path d="M193.456 203.122C189.353 230.783 189.066 256.395 188.792 259.049C188.519 261.704 163.925 261.057 145.624 260.425C138.497 260.136 129.278 260.342 120.592 260.425C127.732 254.441 142.478 244.62 156.676 250.796C176.331 259.421 185.605 232.2 173.596 229.765C161.586 227.33 161.025 213.617 158.632 202.489L168.453 198.5L193.456 203.122Z" fill="#EF5DA8"/>
<path d="M118.706 113.289C118.588 115.433 118.588 117.582 118.706 119.726" stroke="#EF5DA8" stroke-width="1.15577" stroke-linecap="round" stroke-linejoin="round"/>
<path d="M158.605 113.784C158.454 117.993 158.249 120.744 158.249 120.744" stroke="#EF5DA8" stroke-width="1.15577" stroke-linecap="round" stroke-linejoin="round"/>
<path d="M128.238 120.29C133.71 121.844 141.917 121.941 146.69 120.29" stroke="#EF5DA8" stroke-width="1.15577" stroke-linecap="round" stroke-linejoin="round"/>
<path d="M245.038 219.394C239.498 226.505 224.288 227.881 211.95 218.018C208.513 215.217 205.568 211.856 203.237 208.074C201.869 205.914 200.132 202.572 198.176 198.72C197.315 197.001 196.398 195.158 195.441 193.218C190.243 182.545 184.32 169.588 180.504 162.187C178.615 158.446 177.2 154.481 176.291 150.386C175.908 148.763 175.607 147.112 175.375 145.461C172.53 125.517 179.642 104.582 198.86 113.055H198.929C202.759 114.761 206.835 118.419 210.924 123.247C220.855 134.939 230.826 153.508 237.187 167.497C238.623 170.674 239.922 173.604 240.907 176.176C248.376 194.731 251.973 210.44 245.038 219.394Z" fill="#F178B6"/>
<path d="M215.848 187.854C215.424 194.814 207.286 197.689 198.176 198.638C197.314 196.918 196.398 195.075 195.44 193.136C190.243 182.462 184.32 169.505 180.504 162.105C178.615 158.363 177.199 154.398 176.291 150.303C184.128 150.468 192.609 153.343 193.389 166.809C193.977 176.08 216.847 171.94 215.848 187.854Z" fill="#EF5DA8"/>
<path d="M210.966 123.206C210.293 123.236 209.622 123.3 208.955 123.399C198.327 124.774 186.468 131.899 175.416 145.406C172.571 125.462 179.683 104.527 198.901 113H198.97C202.8 114.774 206.876 118.433 210.966 123.206Z" fill="#F178B6"/>
<path d="M203.237 208.032C201.87 205.873 200.133 202.53 198.177 198.679C197.315 196.96 196.398 195.116 195.441 193.177C190.243 182.503 184.32 169.546 180.504 162.146C178.615 158.404 177.2 154.44 176.291 150.344C175.908 148.721 175.607 147.071 175.375 145.42" stroke="#EF5DA8" stroke-width="1.15577" stroke-linecap="round" stroke-linejoin="round"/>
<path d="M245.038 219.394C239.498 226.505 224.288 227.881 211.95 218.018C214.991 217.037 218.214 216.764 221.375 217.221C233.945 219.064 246.337 213.892 236.68 199.147C228.87 187.221 234.451 172.256 237.228 167.51C238.664 170.688 239.963 173.618 240.948 176.19C248.375 194.731 251.973 210.439 245.038 219.394Z" fill="#EF5DA8"/>
<path d="M164.35 30.8698C161.997 32.5479 160.547 32.823 160.602 35.3951C160.656 37.9673 159.562 38.6688 158.468 39.0952C157.374 39.5216 158.591 41.3785 158.249 43.2217C157.907 45.0648 153.27 46.7842 153.27 46.7842L122.439 32.204C119.868 29.0679 120.989 27.321 121.81 25.6429C121.891 25.483 121.933 25.3063 121.933 25.1271C121.933 24.9479 121.891 24.7712 121.81 24.6113C121.386 23.4421 119.499 22.4243 119.991 21.1176C120.606 19.4532 122.275 19.1644 124.204 19.0956C126.133 19.0268 125.763 13.4561 124.847 11.9843C123.93 10.5126 124.628 6.82626 127.733 7.04633C130.838 7.26641 132.042 6.63369 132.315 5.16192C132.503 4.65047 132.794 4.18357 133.17 3.79044C133.546 3.39731 133.998 3.08643 134.499 2.87726C135 2.66808 135.538 2.56512 136.08 2.57482C136.622 2.58452 137.157 2.70667 137.65 2.93363C140.071 4.19908 142.15 2.79608 143.613 1.40684C143.695 1.31838 143.787 1.2399 143.887 1.173C145.487 -0.0786899 148.825 -0.766434 150.193 1.40684C150.81 2.47182 151.701 3.35033 152.772 3.95045C153.842 4.55056 155.054 4.85022 156.279 4.81805C159.193 5.02437 160.027 7.45898 159.398 9.8936C158.769 12.3282 159.672 13.181 161.559 14.2952C162.541 15.0795 163.264 16.1445 163.633 17.35C164.002 18.5555 163.999 19.845 163.625 21.0488C163.246 21.7558 163.109 22.5684 163.235 23.3614C163.361 24.1543 163.743 24.8836 164.322 25.4366C165.239 26.3444 166.702 29.1917 164.35 30.8698Z" fill="#683F1D"/>
<path d="M152.614 70.7176C150.173 71.7528 147.531 72.2229 144.885 72.0931C134.298 71.5979 108.447 81.2126 108.447 81.2126C104.111 81.749 101.457 83.262 103.427 85.4353C105.396 87.6086 107.229 93.8946 102.209 94.4172C101.222 94.5051 100.228 94.5051 99.241 94.4172C96.3002 94.1559 94.9871 92.9042 95.3564 91.7488C95.8351 90.2495 99.0222 90.5796 99.624 89.9744C100.226 89.3692 100.376 87.9937 98.4067 86.1506C96.437 84.3074 95.0144 81.4464 97.0388 78.5441C99.0632 75.6418 103.071 73.0422 100.636 70.9377C98.2015 68.8332 96.2181 67.045 97.244 64.5829C98.2699 62.1208 104.083 58.6546 101.347 55.656C98.6118 52.6574 96.3412 48.7786 101.498 44.0607C106.655 39.3427 111.866 40.2368 111.073 36.2066C110.279 32.1764 110.936 28.2976 116.544 29.2467C122.152 30.1957 122.918 29.7968 125.367 28.4351C127.815 27.0734 131.057 27.8161 134.189 30.5396C137.321 33.2631 140.289 30.1957 144.078 30.9523C147.867 31.7088 144.078 35.3813 148.893 36.2066C153.708 37.0319 155.349 37.2382 155.896 41.8736C156.444 46.509 159.631 46.564 160.301 48.0083C161.669 50.9518 159.494 53.0013 158.865 54.7069C158.235 56.4125 159.603 57.4579 160.684 59.2735C162.489 62.2859 158.851 68.0491 152.614 70.7176Z" fill="#683F1D"/>
<path d="M154.282 62.5197C153.932 65.3089 153.374 68.0676 152.613 70.7726C150.172 71.8078 147.531 72.2779 144.885 72.1481C134.298 71.6529 108.446 81.2676 108.446 81.2676C104.11 81.8041 101.457 83.3171 103.426 85.4904C105.396 87.6636 107.229 93.9496 102.209 94.4723C101.221 94.5602 100.228 94.5602 99.2408 94.4723C103.002 93.8533 104.001 91.1574 102.072 87.5948C99.3365 82.6844 100.362 79.7821 103.043 76.9623C105.724 74.1426 101.334 67.5127 103.043 64.019C104.753 60.5253 107.639 59.2736 106.477 53.9917C105.314 48.7098 105.916 46.1789 110.019 43.2491C114.123 40.3193 117.665 39.7554 119.881 36.2479C122.097 32.7404 127.897 30.5396 129.866 34.7211C131.836 38.9026 132.479 41.7636 138.073 40.058C143.668 38.3524 147.334 40.4431 145.364 45.2298C143.394 50.0165 144.324 54.5694 147.799 55.1609C151.273 55.7523 154.952 55.8073 154.282 62.5197Z" fill="#683F1D"/>
<path d="M150.302 78.5442C129.47 93.7846 120.497 98.7913 110.539 90.3734C105.889 86.4532 105.068 78.4479 106.012 70.2912C106.346 67.3765 106.867 64.4866 107.571 61.6394C108.614 57.0074 110.207 52.5185 112.318 48.2697C116.818 40.1543 127.076 39.7554 128.116 40.1543C129.156 40.5532 129.484 41.1584 128.472 43.5655C127.459 45.9726 128.581 47.692 131.467 47.7745C134.353 47.857 137.65 49.879 137.349 52.7813C137.156 54.1968 137.385 55.6379 138.005 56.923C138.626 58.2082 139.611 59.2797 140.837 60.0026C143.572 61.7082 143.025 64.3079 143.422 65.9172C143.819 67.5265 147.115 69.3284 148.018 67.1139C148.921 64.8993 154.091 60.2364 158.277 64.5142C162.462 68.792 158.769 78.8468 150.302 78.5442Z" fill="#B25E47"/>
<path d="M125.339 67.6502C126.338 69.741 129.949 70.0848 133.396 68.4205C136.842 66.7562 138.867 63.6888 137.814 61.5431C136.76 59.3973 133.204 59.1085 129.757 60.7865C126.31 62.4646 124.327 65.5595 125.339 67.6502Z" fill="#914839"/>
<path d="M111.292 69.4797C110.348 70.8552 108.242 71.0615 106.012 70.2912C106.346 67.3765 106.867 64.4865 107.571 61.6394L108.119 61.997C111.223 64.2391 112.646 67.5953 111.292 69.4797Z" fill="#914839"/>
<path d="M110.895 59.3562C110.895 59.6282 110.975 59.8942 111.125 60.1204C111.275 60.3466 111.489 60.5229 111.739 60.627C111.989 60.7311 112.264 60.7583 112.529 60.7053C112.795 60.6522 113.038 60.5212 113.23 60.3288C113.421 60.1364 113.551 59.8914 113.604 59.6245C113.657 59.3577 113.63 59.0812 113.526 58.8298C113.423 58.5785 113.247 58.3637 113.022 58.2125C112.797 58.0614 112.533 57.9807 112.262 57.9807C111.9 57.9807 111.552 58.1256 111.295 58.3836C111.039 58.6415 110.895 58.9914 110.895 59.3562Z" fill="#683F1D"/>
<path d="M119.594 60.1128C119.594 60.4922 119.744 60.856 120.011 61.1243C120.278 61.3926 120.64 61.5433 121.017 61.5433C121.394 61.5433 121.756 61.3926 122.023 61.1243C122.29 60.856 122.439 60.4922 122.439 60.1128C122.439 59.7334 122.29 59.3695 122.023 59.1012C121.756 58.833 121.394 58.6823 121.017 58.6823C120.64 58.6823 120.278 58.833 120.011 59.1012C119.744 59.3695 119.594 59.7334 119.594 60.1128Z" fill="#683F1D"/>
<path d="M149.536 72.1206C149.823 69.0395 153.325 64.7892 157.1 67.9941" stroke="#914839" stroke-width="1.15577" stroke-linecap="round" stroke-linejoin="round"/>
<path d="M149.687 71.364C152.313 66.8249 157.579 73.0421 151.424 74.2663" stroke="#914839" stroke-width="1.15577" stroke-linecap="round" stroke-linejoin="round"/>
<path d="M114.971 68.5444C113.412 67.8154 112.783 66.3849 112.919 66.0272C113.056 65.6696 117.939 62.0658 117.023 56.4951" stroke="#914839" stroke-width="1.15577" stroke-linecap="round" stroke-linejoin="round"/>
<path d="M120.962 49.5215C120.524 52.4237 127.541 55.271 128.622 53.4278C129.593 51.8598 121.673 45.2575 120.962 49.5215Z" fill="#683F1D"/>
<path d="M109.24 51.4334C109.24 52.2725 116.845 52.1074 116.736 49.1776C116.626 46.2478 109.049 48.93 109.24 51.4334Z" fill="#683F1D"/>
<path d="M115.696 71.4742C118.308 70.7743 120.857 69.854 123.315 68.7233C123.315 68.7233 124.095 73.565 121.017 74.459C120.473 74.6162 119.903 74.6636 119.34 74.5985C118.778 74.5334 118.234 74.357 117.739 74.0796C117.245 73.8022 116.81 73.4292 116.459 72.9821C116.108 72.535 115.849 72.0225 115.696 71.4742Z" fill="white" stroke="#914839" stroke-width="1.15577" stroke-linecap="round" stroke-linejoin="round"/>
<path d="M155.349 19.0956C154.187 22.7131 150.001 18.9718 149.673 24.1299C149.344 29.2879 139.086 27.8437 135.995 22.8231C133.423 18.6967 126.146 20.251 121.865 24.6113C121.441 23.4421 119.553 22.4243 120.046 21.1175C120.661 19.4532 122.33 19.1644 124.259 19.0956C126.187 19.0268 125.818 13.4561 124.901 11.9843C123.985 10.5125 124.683 6.82623 127.788 7.0463C130.893 7.26638 132.096 6.63366 132.37 5.16189C132.558 4.65044 132.849 4.18354 133.225 3.79041C133.6 3.39728 134.053 3.0864 134.554 2.87723C135.054 2.66805 135.593 2.56509 136.135 2.57479C136.677 2.58449 137.211 2.70664 137.704 2.9336C140.125 4.19905 142.204 2.79605 143.668 1.40681C143.75 1.31835 143.842 1.23987 143.942 1.17297C145.132 4.58418 146.007 9.23333 150.617 9.63222C157.086 10.2237 156.526 15.4643 155.349 19.0956Z" fill="#683F1D"/>
<path d="M22.0001 118.337C22.5745 114.637 32.9427 111.872 38.9337 110.717L41.2317 125.654C41.2317 125.654 24.6947 123.275 22.0001 118.337Z" fill="#EF5DA8"/>
<path d="M31.6156 126.287C30.4393 110.098 30.4393 96.4941 30.0973 91.336C29.7554 86.178 30.0152 80.6898 36.0474 78.1864C36.0474 78.1864 36.0474 73.4134 42.8865 72.5331C42.8865 72.5331 42.0248 68.2554 47.7696 68.4067C47.7576 68.0049 47.8383 67.6057 48.0056 67.2406C48.1728 66.8755 48.422 66.5543 48.7335 66.3024C49.045 66.0505 49.4103 65.8746 49.8008 65.7886C50.1913 65.7027 50.5963 65.709 50.984 65.807C51.9806 65.9075 52.9431 66.227 53.8035 66.7427C54.6638 67.2585 55.401 67.958 55.9629 68.7918C60.9555 67.7189 63.7458 72.9183 63.4996 77.2235C63.2534 81.5288 62.9251 86.233 60.8734 90.5382C58.8217 94.8435 56.1818 102.024 56.1818 102.024L56.3459 111.116C56.3459 111.116 52.5707 140.317 31.6156 126.287Z" fill="#B25E47"/>
<path d="M30.0979 91.336C29.7423 86.178 30.0158 80.6898 36.048 78.1864C36.048 78.1864 36.048 73.4134 42.8871 72.5331C42.8871 72.5331 42.0254 68.2554 47.7702 68.4067C47.7582 68.0049 47.8389 67.6057 48.0062 67.2406C48.1734 66.8755 48.4226 66.5543 48.7341 66.3024C49.0456 66.0505 49.4109 65.8746 49.8014 65.7886C50.1919 65.7027 50.5969 65.709 50.9846 65.807C51.9812 65.9075 52.9437 66.227 53.8041 66.7427C54.6644 67.2585 55.4016 67.958 55.9635 68.7918C60.9561 67.7189 63.7464 72.9183 63.5002 77.2235" stroke="#914839" stroke-width="1.15577" stroke-linecap="round" stroke-linejoin="round"/>
<path d="M56.0043 68.7643C50.8613 71.3089 47.0861 76.0819 48.6317 78.3927C50.1773 80.7035 56.0043 77.7875 56.8387 77.0172" stroke="#914839" stroke-width="1.15577" stroke-linecap="round" stroke-linejoin="round"/>
<path d="M47.373 68.379C49.3943 68.9281 51.335 69.742 53.1453 70.7999" stroke="#914839" stroke-width="1.15577" stroke-linecap="round" stroke-linejoin="round"/>
<path d="M42.996 72.5331C45.2508 72.6257 47.4605 73.1976 49.4795 74.2112" stroke="#914839" stroke-width="1.15577" stroke-linecap="round" stroke-linejoin="round"/>
<path d="M48.4677 85.0774C50.1911 83.7019 51.682 81.4598 51.2033 79.3141" stroke="#914839" stroke-width="1.15577" stroke-linecap="round" stroke-linejoin="round"/>
<path d="M36.0477 78.1863C40.1512 76.4945 44.2547 74.5688 45.6225 77.3885C46.9903 80.2083 47.5375 88.8739 45.6225 90.043C43.7076 91.2122 40.4795 90.2493 39.9324 87.9798C39.3852 85.7102 38.9749 82.6154 38.9749 82.6154" stroke="#914839" stroke-width="1.15577" stroke-linecap="round" stroke-linejoin="round"/>
<path d="M43.6662 90.5383C45.3896 92.6841 44.8288 100.277 42.9276 102.808" stroke="#914839" stroke-width="1.15577" stroke-linecap="round" stroke-linejoin="round"/>
<path d="M57.2219 221.471C53.857 227.853 49.0149 231.333 42.6545 229.16C30.5356 225.034 25.7208 213.356 23.9563 201.953C22.1098 190.055 23.5597 178.432 23.5049 175.97C23.3818 171.128 22.0551 118.364 22.0551 118.364C24.1615 119.204 27.3349 119.217 31.1921 118.502C34.1263 117.918 37.0049 117.08 39.7958 115.999C45.6477 113.755 51.213 110.818 56.3738 107.251L56.6063 107.099C56.6063 107.099 57.6459 120.18 59.0684 135.214C60.2721 148.089 61.8041 162.394 63.0488 171.156C65.1005 185.268 63.8558 208.94 57.2219 221.471Z" fill="#F178B6"/>
<path d="M57.2217 221.471C53.8568 227.853 49.0147 231.333 42.6544 229.16C30.5354 225.034 25.7207 213.356 23.9562 201.953C26.1165 205.635 28.6614 209.075 31.5476 212.214C40.4522 221.829 49.8354 223.906 57.2217 221.471Z" fill="#EF5DA8"/>
<path d="M56.551 107.072C56.551 107.072 60.162 152.16 62.9934 171.128C64.5386 183.193 64.16 195.428 61.8718 207.372" stroke="#EF5DA8" stroke-width="1.15577" stroke-linecap="round" stroke-linejoin="round"/>
<path d="M184.537 161.317L141.498 143.24C138.104 141.814 134.202 143.425 132.784 146.839L107.226 208.37C105.808 211.784 107.41 215.707 110.805 217.133L153.844 235.211C157.239 236.637 161.141 235.026 162.558 231.612L188.117 170.08C189.535 166.667 187.932 162.743 184.537 161.317Z" fill="#DDDDDD"/>
<path d="M179.708 159.28L141.503 143.232C138.108 141.807 134.207 143.418 132.789 146.832L107.231 208.363C105.813 211.777 107.415 215.7 110.81 217.126L149.015 233.174C152.41 234.6 156.311 232.988 157.729 229.574L183.287 168.043C184.705 164.629 183.103 160.706 179.708 159.28Z" fill="#F9F9F9" stroke="#DDDDDD" stroke-width="1.55503" stroke-linecap="round" stroke-linejoin="round"/>
<path d="M144.024 153.467C144.022 154.043 143.849 154.606 143.529 155.083C143.209 155.561 142.755 155.933 142.225 156.151C141.695 156.37 141.112 156.426 140.551 156.312C139.989 156.198 139.474 155.919 139.069 155.51C138.665 155.102 138.39 154.582 138.28 154.017C138.169 153.452 138.227 152.866 138.447 152.334C138.667 151.802 139.038 151.348 139.515 151.028C139.992 150.708 140.552 150.537 141.125 150.537C141.507 150.537 141.885 150.613 142.238 150.761C142.59 150.908 142.911 151.124 143.18 151.396C143.449 151.668 143.663 151.991 143.808 152.347C143.953 152.702 144.026 153.083 144.024 153.467Z" fill="#DDDDDD"/>
<path d="M148.811 156.397C148.811 156.685 148.726 156.967 148.567 157.207C148.407 157.447 148.181 157.633 147.916 157.744C147.651 157.854 147.36 157.883 147.078 157.827C146.797 157.771 146.539 157.632 146.336 157.428C146.133 157.224 145.995 156.964 145.939 156.681C145.883 156.398 145.912 156.105 146.022 155.839C146.131 155.572 146.317 155.345 146.556 155.185C146.794 155.024 147.074 154.939 147.361 154.939C147.552 154.937 147.741 154.973 147.918 155.046C148.095 155.119 148.255 155.226 148.39 155.362C148.525 155.497 148.632 155.659 148.704 155.837C148.777 156.014 148.813 156.205 148.811 156.397Z" fill="#DDDDDD"/>
<path d="M146.691 204.731C143.846 203.741 142.368 198.212 141.985 193.452L153.147 194.828C153.147 194.828 153.229 205.46 146.691 204.731Z" fill="#EF5DA8"/>
<path d="M150.439 201.925C147.275 199.649 143.997 197.537 140.618 195.598C139.346 194.896 132.138 194.085 127.104 191.306C123.725 189.379 120.468 187.243 117.352 184.91L115.368 188.624C115.368 188.624 111.47 184.388 110.882 180.564C110.294 176.74 111.867 176.616 112.797 175.805C113.727 174.993 113.139 173.769 113.084 171.788C113.029 169.808 114.698 169.409 115.218 168.721C115.738 168.033 115.218 166.218 115.218 163.783C115.218 161.348 117.953 161.225 118.446 159.835C118.938 158.446 119.308 153.962 123.233 155.131C127.159 156.3 144.257 169.065 145.406 169.643C147.067 170.245 148.767 170.732 150.494 171.101C150.494 171.101 164.405 193.095 150.439 201.925Z" fill="#B25E47"/>
<path d="M117.352 184.91L115.368 188.624C115.368 188.624 111.47 184.388 110.882 180.564C110.294 176.74 111.867 176.616 112.797 175.805C113.727 174.993 113.139 173.769 113.084 171.788C113.029 169.808 114.698 169.409 115.218 168.721C115.738 168.033 115.218 166.218 115.218 163.783C115.218 161.348 117.953 161.225 118.446 159.835C118.938 158.446 119.308 153.962 123.233 155.131" stroke="#914839" stroke-width="1.15577" stroke-linecap="round" stroke-linejoin="round"/>
<path d="M117.351 184.911C115.395 183.274 114.985 182.999 114.985 182.999" stroke="#914839" stroke-width="1.15577" stroke-linecap="round" stroke-linejoin="round"/>
<path d="M247.213 216.437C243.629 227.441 230.279 237.289 199.831 225.721L198.176 225.075C166.552 212.489 146.677 204.731 146.677 204.731C149.416 193.095 149.416 180.977 146.677 169.34C164.856 174.457 212.921 184.374 229.992 189.408C231.113 189.739 232.194 190.096 233.206 190.481C247.527 195.832 250.673 205.735 247.213 216.437Z" fill="#F178B6"/>
<path d="M198.176 225.075C166.552 212.489 146.691 204.731 146.691 204.731" stroke="#EF5DA8" stroke-width="1.15577" stroke-linecap="round" stroke-linejoin="round"/>
<path d="M146.691 169.34C163.174 173.975 204.304 182.572 224.507 187.895" stroke="#EF5DA8" stroke-width="1.15577" stroke-linecap="round" stroke-linejoin="round"/>
<path d="M247.212 216.437C243.629 227.441 230.279 237.289 199.831 225.721C199.831 225.721 208.804 215.35 221.374 217.179C233.944 219.009 246.337 213.851 236.68 199.105C234.964 196.491 233.783 193.559 233.206 190.481C247.527 195.832 250.673 205.735 247.212 216.437Z" fill="#EF5DA8"/>
<defs>
<linearGradient id="paint0_linear_55_35" x1="58" y1="260" x2="59.5" y2="22" gradientUnits="userSpaceOnUse">
<stop stop-color="#7879F1"/>
<stop offset="1" stop-color="#7879F1" stop-opacity="0"/>
</linearGradient>
</defs>
</svg>
