<svg width="1175" height="496" viewBox="0 0 1175 496" fill="none" xmlns="http://www.w3.org/2000/svg">
<path d="M1048.53 199.491C1052.48 191.421 1061.8 188.057 1061.8 188.057L1076.12 197.407C1076.12 197.407 1069.52 160.226 1042 114.169C1045.83 139.23 1048.03 180.622 1048.53 199.491Z" fill="#DDDDDD" stroke="#DDDDDD" stroke-linecap="round" stroke-linejoin="round"/>
<path d="M1133.62 81.7008C1164.19 132.022 1173.87 171.217 1173.87 171.217L1076.12 197.407C1076.12 197.407 1048.44 146.758 1042 114.169C1042 114.169 1038.12 107.116 1044.07 104.809C1050.01 102.501 1133.62 81.7008 1133.62 81.7008Z" fill="#F9F9F9" stroke="#DDDDDD" stroke-linecap="round" stroke-linejoin="round"/>
<path d="M1055.16 102.146C1055.11 101.998 1055.07 101.847 1055.04 101.695C1054.79 100.199 1054.95 98.6745 1055.5 97.306C1056.05 95.9375 1056.96 94.7837 1058.13 93.9843C1059.3 93.1849 1060.68 92.7742 1062.09 92.8017C1063.51 92.8293 1064.9 93.294 1066.1 94.1396C1067.3 94.9852 1068.26 96.1755 1068.86 97.5665C1069.46 98.9574 1069.68 100.489 1069.49 101.977C1069.29 103.464 1068.7 104.844 1067.77 105.948C1066.85 107.053 1065.63 107.835 1064.28 108.2" stroke="#DDDDDD" stroke-linecap="round" stroke-linejoin="round"/>
<path d="M1104.83 88.838C1104.62 87.3463 1104.81 85.8388 1105.39 84.4955C1105.97 83.1523 1106.9 82.0302 1108.08 81.2633C1109.26 80.4964 1110.64 80.1171 1112.04 80.1708C1113.45 80.2246 1114.82 80.709 1116 81.5662C1117.19 82.4234 1118.13 83.6172 1118.71 85.0048C1119.29 86.3925 1119.5 87.9154 1119.3 89.3915C1119.1 90.8677 1118.5 92.2346 1117.58 93.329C1116.66 94.4234 1115.45 95.199 1114.1 95.563C1112.93 95.8749 1111.69 95.8478 1110.51 95.4844" stroke="#DDDDDD" stroke-linecap="round" stroke-linejoin="round"/>
<path d="M1075.02 96.4777C1074.56 94.4813 1074.82 92.4046 1075.73 90.6554C1076.65 88.9062 1078.16 87.6108 1079.96 87.0234C1081.94 86.7229 1083.99 87.2235 1085.7 88.4285C1087.41 89.6334 1088.67 91.4572 1089.23 93.5474C1089.79 95.6376 1089.61 97.846 1088.73 99.7457C1087.85 101.645 1086.33 103.102 1084.46 103.833C1082.88 104.228 1081.2 103.993 1079.73 103.172" stroke="#DDDDDD" stroke-linecap="round" stroke-linejoin="round"/>
<path d="M1089.95 92.6692C1089.74 91.1806 1089.93 89.6753 1090.51 88.3333C1091.08 86.9914 1092.01 85.8696 1093.19 85.1022C1094.37 84.3349 1095.74 83.9543 1097.14 84.0061C1098.54 84.058 1099.91 84.54 1101.09 85.3945C1102.28 86.249 1103.21 87.4399 1103.8 88.8247C1104.38 90.2094 1104.59 91.7295 1104.39 93.2029C1104.19 94.6764 1103.59 96.041 1102.67 97.1333C1101.75 98.2257 1100.55 98.9997 1099.2 99.3626" stroke="#DDDDDD" stroke-linecap="round" stroke-linejoin="round"/>
<path d="M1133.09 100.654L1064.6 119.005L1066.86 127.455L1135.35 109.104L1133.09 100.654Z" stroke="#DDDDDD" stroke-linecap="round" stroke-linejoin="round"/>
<path d="M1099.47 181.283L1096.7 174.399L1082.48 138.95L1080.13 133.129" stroke="#DDDDDD" stroke-linecap="round" stroke-linejoin="round"/>
<path d="M1121.7 175.327L1118.74 167.951L1104.88 133.449L1102.36 127.173" stroke="#DDDDDD" stroke-linecap="round" stroke-linejoin="round"/>
<path d="M1124.6 121.194L1143.94 169.388" stroke="#DDDDDD" stroke-linecap="round" stroke-linejoin="round"/>
<path d="M1141.06 127.464L1106.23 136.797L1084 142.753L1074.25 145.364" stroke="#DDDDDD" stroke-linecap="round" stroke-linejoin="round"/>
<path d="M1150.27 148.303L1114.68 157.841L1092.45 163.797L1083.45 166.208" stroke="#DDDDDD" stroke-linecap="round" stroke-linejoin="round"/>
<path d="M1088.13 132.82C1078.72 141.87 1080.2 168.682 1099.39 165.354C1127.68 160.44 1119.16 123.368 1095.89 133.311" fill="#F9F9F9"/>
<path d="M1088.13 132.82C1078.72 141.87 1080.2 168.682 1099.39 165.354C1127.68 160.44 1119.16 123.368 1095.89 133.311" stroke="#DDDDDD" stroke-width="2" stroke-linecap="round" stroke-linejoin="round"/>
<path d="M1114.68 157.841L1092.45 163.797L1084 142.753L1106.23 136.797L1114.68 157.841Z" fill="#DDDDDD"/>
<path d="M1088.13 132.82C1078.72 141.87 1080.2 168.682 1099.39 165.354C1127.68 160.44 1119.16 123.368 1095.89 133.311" stroke="#DDDDDD" stroke-width="2" stroke-linecap="round" stroke-linejoin="round"/>
<path d="M145 495L140.525 493.168L133.755 490.389C133.755 490.389 99.4397 454.96 83.0026 437.942C78.4804 433.257 75.3099 429.971 74.5815 429.199C72.1588 426.623 77.8962 419.855 80.9616 422.675C81.1992 422.898 84.3814 426.116 89.1645 430.97C105.598 447.627 140.969 483.605 140.969 483.605L143.337 490.283L145 495Z" fill="#F9F9F9" stroke="#DDDDDD" stroke-width="2" stroke-linecap="round" stroke-linejoin="round"/>
<path d="M91.9884 438.328L136.104 482.841" stroke="#DDDDDD" stroke-linecap="round" stroke-linejoin="round"/>
<path d="M90.1072 441.338L133.833 485.461" stroke="#DDDDDD" stroke-linecap="round" stroke-linejoin="round"/>
<path d="M143.325 490.283C142.1 490.878 141.11 491.897 140.525 493.168L133.755 490.389C133.755 490.389 133.942 488.037 136.443 488.398C135.905 486.875 136.984 485.148 138.83 486.391C138.83 486.391 138.441 483.909 140.957 483.605L143.325 490.283Z" fill="#F9F9F9" stroke="#DDDDDD" stroke-width="2" stroke-linecap="round" stroke-linejoin="round"/>
<path d="M145 495L140.525 493.168C141.11 491.897 142.1 490.878 143.325 490.283L145 495Z" fill="#DDDDDD" stroke="#DDDDDD" stroke-width="2" stroke-linecap="round" stroke-linejoin="round"/>
<path d="M89.1645 430.97C87.1119 433.29 84.8605 435.845 83.0026 437.942C78.4804 433.257 75.3099 429.971 74.5815 429.199C72.1588 426.623 77.8962 419.855 80.9616 422.675C81.1992 422.898 84.3814 426.116 89.1645 430.97Z" stroke="#DDDDDD" stroke-width="2" stroke-linecap="round" stroke-linejoin="round"/>
<path d="M86.9133 428.687L80.6072 435.463" stroke="#DDDDDD" stroke-width="2" stroke-linecap="round" stroke-linejoin="round"/>
<path d="M10.0297 8H54.8497C52.8497 21.78 55.8497 44.37 64.7997 62.12H15.4298C15.4298 62.12 0.859742 50.32 10.0297 8Z" stroke="#DDDDDD" stroke-width="2" stroke-linecap="round" stroke-linejoin="round"/>
<path d="M17 18H41.4" stroke="#DDDDDD" stroke-linecap="round" stroke-linejoin="round"/>
<path d="M17 27H41.4" stroke="#DDDDDD" stroke-linecap="round" stroke-linejoin="round"/>
<path d="M17 35H41.4" stroke="#DDDDDD" stroke-linecap="round" stroke-linejoin="round"/>
<path d="M43 44H29V54H43V44Z" fill="#DDDDDD" stroke="#DDDDDD" stroke-miterlimit="10"/>
<path d="M1 16L15.07 1L20.49 6.01999L6.66998 22.36L1 16Z" fill="#DDDDDD" stroke="#DDDDDD" stroke-miterlimit="10"/>
<path d="M43 5.42L57.02 20.33L61.73 14.34L48.29 1L43 5.42Z" fill="#DDDDDD" stroke="#DDDDDD" stroke-miterlimit="10"/>
<path d="M143.709 355.344L148.709 359.654C148.881 359.803 149.087 359.907 149.308 359.957C149.529 360.008 149.76 360.003 149.979 359.944L156.359 358.284C156.614 358.217 156.882 358.222 157.134 358.3C157.386 358.377 157.611 358.524 157.784 358.723C157.957 358.921 158.07 359.165 158.112 359.425C158.153 359.685 158.121 359.951 158.019 360.194L155.459 366.274C155.372 366.484 155.337 366.713 155.358 366.939C155.379 367.166 155.455 367.384 155.579 367.574L159.129 373.134C159.269 373.355 159.345 373.611 159.348 373.873C159.351 374.134 159.281 374.391 159.146 374.616C159.011 374.84 158.816 375.022 158.584 375.142C158.351 375.262 158.09 375.314 157.829 375.294L151.259 374.744C151.031 374.723 150.801 374.758 150.59 374.847C150.379 374.936 150.193 375.076 150.049 375.254L145.869 380.344C145.701 380.546 145.48 380.697 145.231 380.781C144.982 380.865 144.715 380.878 144.459 380.819C144.203 380.76 143.968 380.631 143.781 380.447C143.594 380.262 143.462 380.029 143.399 379.774L141.899 373.354C141.847 373.13 141.742 372.923 141.592 372.748C141.442 372.574 141.253 372.439 141.039 372.354L134.899 369.954C134.654 369.859 134.44 369.697 134.282 369.486C134.124 369.276 134.028 369.025 134.005 368.763C133.982 368.5 134.033 368.237 134.152 368.002C134.272 367.768 134.454 367.571 134.679 367.434L140.319 364.024C140.516 363.906 140.681 363.741 140.799 363.544C140.918 363.347 140.986 363.124 140.999 362.894L141.379 356.314C141.397 356.053 141.487 355.801 141.64 355.588C141.793 355.375 142.002 355.209 142.244 355.108C142.486 355.008 142.751 354.976 143.01 355.018C143.269 355.06 143.511 355.173 143.709 355.344V355.344Z" fill="#DDDDDD" stroke="#DDDDDD" stroke-miterlimit="10"/>
<path d="M1046.38 415.334L1046.59 421.924C1046.6 422.153 1046.67 422.375 1046.78 422.573C1046.89 422.772 1047.05 422.94 1047.24 423.064L1052.79 426.664C1053.01 426.807 1053.19 427.007 1053.3 427.244C1053.42 427.482 1053.46 427.745 1053.43 428.006C1053.4 428.267 1053.3 428.515 1053.14 428.721C1052.98 428.927 1052.76 429.084 1052.51 429.174L1046.31 431.414C1046.09 431.495 1045.9 431.629 1045.74 431.803C1045.59 431.977 1045.48 432.187 1045.42 432.414L1043.79 438.724C1043.73 438.977 1043.59 439.207 1043.4 439.387C1043.21 439.566 1042.97 439.69 1042.72 439.743C1042.46 439.796 1042.19 439.776 1041.95 439.686C1041.7 439.597 1041.49 439.44 1041.32 439.234L1037.27 434.024C1037.13 433.844 1036.95 433.701 1036.74 433.607C1036.53 433.513 1036.3 433.471 1036.07 433.484L1029.49 433.874C1029.23 433.89 1028.97 433.832 1028.74 433.706C1028.51 433.58 1028.31 433.392 1028.18 433.163C1028.05 432.934 1027.99 432.674 1028 432.41C1028.01 432.147 1028.1 431.892 1028.24 431.674L1031.94 426.214C1032.07 426.023 1032.15 425.805 1032.18 425.577C1032.2 425.35 1032.17 425.119 1032.09 424.904L1029.69 418.764C1029.6 418.52 1029.57 418.253 1029.62 417.995C1029.67 417.736 1029.79 417.496 1029.96 417.302C1030.14 417.107 1030.37 416.966 1030.62 416.894C1030.87 416.822 1031.14 416.822 1031.39 416.894L1037.73 418.724C1037.95 418.788 1038.18 418.797 1038.41 418.752C1038.63 418.706 1038.84 418.608 1039.01 418.464L1044.11 414.284C1044.32 414.13 1044.56 414.035 1044.82 414.008C1045.07 413.981 1045.33 414.024 1045.56 414.131C1045.8 414.239 1045.99 414.408 1046.14 414.619C1046.28 414.831 1046.37 415.078 1046.38 415.334V415.334Z" fill="#DDDDDD" stroke="#DDDDDD" stroke-miterlimit="10"/>
</svg>
