<svg width="191" height="322" viewBox="0 0 191 322" fill="none" xmlns="http://www.w3.org/2000/svg">
<path d="M5.76864 280.73C-4.05136 262.49 1.84863 232.55 18.3886 230.31C34.9286 228.07 56.8587 249.47 65.3886 238.85C74.6487 227.28 67.1186 171.45 67.1886 161.36L108.679 157.15C108.679 157.15 100.769 233 111.609 241.83C117.959 247 125.389 246.28 129.839 236.94C133.839 228.46 139.489 221.63 149.619 229.49C149.619 229.49 155.299 216.28 177.299 221.49C199.299 226.7 186.579 252.07 181.459 255.49C181.459 255.49 191.459 264.32 188.289 275.49C185.119 286.66 168.989 291.79 168.989 291.79C168.989 291.79 175.679 307.04 162.299 311.9C148.919 316.76 140.239 315.05 131.449 311.9C122.659 308.75 107.449 300.9 98.8886 312.95C90.3287 325 30.8986 327.44 5.76864 280.73Z" fill="#F9F9F9" stroke="#DDDDDD" stroke-width="1.81" stroke-linecap="round" stroke-linejoin="round"/>
<path d="M62.9586 182.04C54.8186 184.35 50.6886 193.04 48.5286 201.65C46.3686 210.26 47.2286 211.7 44.8286 209.59C42.2586 207.33 36.6886 191.26 39.6786 166.74C41.8986 148.53 50.0886 140.12 54.8086 136.74C56.1594 151.79 58.8671 166.687 62.8986 181.25C62.9339 181.512 62.9539 181.776 62.9586 182.04Z" fill="#DDDDDD" stroke="#DDDDDD" stroke-width="1.81" stroke-linecap="round" stroke-linejoin="round"/>
<path d="M130.189 209.59C127.789 211.7 128.619 210.24 126.479 201.65C124.339 193.06 120.199 184.35 112.059 182.04C112.062 181.779 112.078 181.519 112.109 181.26C116.154 166.69 118.865 151.782 120.209 136.72C124.929 140.13 133.119 148.54 135.339 166.72C138.319 191.26 132.769 207.33 130.189 209.59Z" fill="#DDDDDD" stroke="#DDDDDD" stroke-width="1.81" stroke-linecap="round" stroke-linejoin="round"/>
<path d="M120.209 136.71C118.865 151.772 116.154 166.68 112.109 181.25C111.729 182.55 111.359 183.83 110.969 185.07H64.0386C63.6486 183.82 63.2686 182.53 62.8986 181.22C58.8671 166.657 56.1594 151.76 54.8086 136.71C52.6486 113.71 53.1086 88.01 58.1286 63.36C58.7786 60.19 59.4786 57.15 60.2286 54.26C69.9686 16.5 87.5086 1 87.5086 1C87.5086 1 105.059 16.5 114.789 54.26C115.539 57.15 116.249 60.19 116.889 63.36C121.909 88.01 122.379 113.67 120.209 136.71Z" fill="#F9F9F9" stroke="#DDDDDD" stroke-width="1.81" stroke-linecap="round" stroke-linejoin="round"/>
<path d="M114.789 54.26H60.2286C69.9686 16.5 87.5086 1 87.5086 1C87.5086 1 105.059 16.5 114.789 54.26Z" fill="#DDDDDD" stroke="#DDDDDD" stroke-width="0.9" stroke-miterlimit="10"/>
<path d="M100.549 99.83C98.8389 101.547 96.8069 102.91 94.5691 103.84C92.3313 104.77 89.9319 105.249 87.5086 105.249C85.0853 105.249 82.6859 104.77 80.4481 103.84C78.2103 102.91 76.1783 101.547 74.4686 99.83C71.0251 96.3657 69.0923 91.6795 69.0923 86.795C69.0923 81.9104 71.0251 77.2243 74.4686 73.76C76.1783 72.0426 78.2103 70.6798 80.4481 69.75C82.6859 68.8201 85.0853 68.3414 87.5086 68.3414C89.9319 68.3414 92.3313 68.8201 94.5691 69.75C96.8069 70.6798 98.8389 72.0426 100.549 73.76C101.666 74.8736 102.634 76.1274 103.429 77.49C105.481 81.0095 106.312 85.1092 105.791 89.1501C105.27 93.191 103.427 96.9461 100.549 99.83Z" fill="#DDDDDD" stroke="#F9F9F9" stroke-width="1.81" stroke-linecap="round" stroke-linejoin="round"/>
<path d="M103.429 77.49L78.1986 102.72C76.8375 101.919 75.5841 100.948 74.4686 99.83C73.3544 98.7126 72.3897 97.4554 71.5986 96.09L96.8186 70.87C98.1797 71.6709 99.4332 72.6421 100.549 73.76C101.666 74.8736 102.634 76.1274 103.429 77.49Z" fill="#F9F9F9"/>
<path d="M87.5086 132.79C79.6286 143.25 75.5086 196.16 87.5086 210.45C99.5286 196.15 95.3786 143.25 87.5086 132.79Z" fill="#DDDDDD" stroke="#DDDDDD" stroke-width="0.9" stroke-miterlimit="10"/>
<path d="M100.549 99.83C98.839 101.547 96.8069 102.91 94.5691 103.84C92.3313 104.77 89.9319 105.249 87.5086 105.249C85.0853 105.249 82.6859 104.77 80.4481 103.84C78.2103 102.91 76.1783 101.547 74.4686 99.83C71.0251 96.3657 69.0923 91.6795 69.0923 86.795C69.0923 81.9104 71.0251 77.2243 74.4686 73.76C76.1783 72.0426 78.2103 70.6798 80.4481 69.75C82.6859 68.8201 85.0853 68.3414 87.5086 68.3414C89.9319 68.3414 92.3313 68.8201 94.5691 69.75C96.8069 70.6798 98.839 72.0426 100.549 73.76C101.666 74.8736 102.634 76.1274 103.429 77.49C105.481 81.0095 106.312 85.1092 105.791 89.1501C105.27 93.191 103.427 96.9461 100.549 99.83V99.83Z" stroke="#DDDDDD" stroke-width="1.81" stroke-linecap="round" stroke-linejoin="round"/>
<path d="M181.459 255.5C179.453 256.994 177.356 258.36 175.179 259.59" stroke="#DDDDDD" stroke-width="1.81" stroke-linecap="round" stroke-linejoin="round"/>
<path d="M164.449 262.61C159.229 257.3 146.519 259.67 144.509 271.9C142.499 284.13 153.229 294.81 168.989 291.84" stroke="#DDDDDD" stroke-width="1.81" stroke-linecap="round" stroke-linejoin="round"/>
<path d="M81.0286 213.59C83.0286 227.75 82.2286 252.34 82.1086 253.9" stroke="#DDDDDD" stroke-width="1.81" stroke-linecap="round" stroke-linejoin="round"/>
<path d="M107.379 274.29C99.5786 266.13 95.8586 260.85 95.8586 226.19" stroke="#DDDDDD" stroke-width="1.81" stroke-linecap="round" stroke-linejoin="round"/>
</svg>
