<svg width="578" height="379" viewBox="0 0 578 379" fill="none" xmlns="http://www.w3.org/2000/svg">
<path d="M256.136 64.3375C256.138 64.824 255.99 65.3 255.712 65.7053C255.434 66.1107 255.039 66.427 254.575 66.6144C254.111 66.8017 253.6 66.8516 253.107 66.7578C252.614 66.6639 252.161 66.4305 251.805 66.0871C251.449 65.7437 251.206 65.3058 251.108 64.8288C251.009 64.3517 251.059 63.8571 251.251 63.4075C251.442 62.9579 251.768 62.5735 252.186 62.303C252.603 62.0326 253.094 61.8882 253.597 61.8882C254.269 61.8882 254.913 62.146 255.389 62.6051C255.865 63.0641 256.134 63.6871 256.136 64.3375Z" fill="#DDDDDD"/>
<path d="M267.898 64.3375H317.185" stroke="#DDDDDD" stroke-width="2" stroke-linecap="round" stroke-linejoin="round"/>
<path d="M256.136 75.7073C256.136 76.1934 255.987 76.6686 255.708 77.0728C255.429 77.477 255.033 77.7921 254.569 77.9781C254.105 78.1641 253.594 78.2128 253.102 78.118C252.609 78.0231 252.157 77.789 251.802 77.4453C251.447 77.1015 251.205 76.6636 251.107 76.1868C251.009 75.71 251.059 75.2158 251.251 74.7667C251.444 74.3176 251.769 73.9337 252.186 73.6637C252.604 73.3936 253.095 73.2494 253.597 73.2494C253.931 73.2483 254.261 73.3111 254.57 73.4342C254.879 73.5573 255.159 73.7383 255.395 73.9668C255.631 74.1953 255.818 74.4667 255.945 74.7654C256.072 75.0641 256.137 75.3842 256.136 75.7073Z" fill="#DDDDDD"/>
<path d="M267.898 75.7073H286.896" stroke="#DDDDDD" stroke-width="2" stroke-linecap="round" stroke-linejoin="round"/>
<path d="M110.441 64.3375C110.443 64.824 110.296 65.3 110.018 65.7053C109.74 66.1107 109.344 66.427 108.88 66.6144C108.416 66.8017 107.906 66.8516 107.413 66.7578C106.919 66.6639 106.466 66.4305 106.11 66.0871C105.754 65.7437 105.512 65.3058 105.413 64.8288C105.314 64.3517 105.364 63.8571 105.556 63.4075C105.748 62.9579 106.073 62.5735 106.491 62.303C106.909 62.0326 107.4 61.8882 107.902 61.8882C108.574 61.8882 109.219 62.146 109.695 62.6051C110.17 63.0641 110.439 63.6871 110.441 64.3375Z" fill="#DDDDDD"/>
<path d="M122.213 64.3375H187.878" stroke="#DDDDDD" stroke-width="2" stroke-linecap="round" stroke-linejoin="round"/>
<path d="M107.902 78.1652C109.305 78.1652 110.441 77.0647 110.441 75.7073C110.441 74.3498 109.305 73.2494 107.902 73.2494C106.5 73.2494 105.363 74.3498 105.363 75.7073C105.363 77.0647 106.5 78.1652 107.902 78.1652Z" fill="#DDDDDD"/>
<path d="M122.213 75.7073H154.002" stroke="#DDDDDD" stroke-width="2" stroke-linecap="round" stroke-linejoin="round"/>
<path d="M110.441 87.2834C110.443 87.7698 110.296 88.2459 110.018 88.6512C109.74 89.0565 109.344 89.3729 108.88 89.5603C108.416 89.7476 107.906 89.7975 107.413 89.7037C106.919 89.6098 106.466 89.3764 106.11 89.033C105.754 88.6896 105.512 88.2517 105.413 87.7746C105.314 87.2976 105.364 86.803 105.556 86.3534C105.748 85.9037 106.073 85.5194 106.491 85.2489C106.909 84.9785 107.4 84.8341 107.902 84.8341C108.574 84.8341 109.219 85.0918 109.695 85.5509C110.17 86.01 110.439 86.633 110.441 87.2834Z" fill="#DDDDDD"/>
<path d="M122.213 87.2834H163.599" stroke="#DDDDDD" stroke-width="2" stroke-linecap="round" stroke-linejoin="round"/>
<path d="M355.296 37.5587H246.513V50.4411H355.296V37.5587Z" stroke="#DDDDDD" stroke-linecap="round" stroke-linejoin="round"/>
<path d="M212.388 37.5587H103.606V50.4411H212.388V37.5587Z" stroke="#DDDDDD" stroke-linecap="round" stroke-linejoin="round"/>
<path d="M499.144 12.9112H57.7899V285.34H499.144V12.9112Z" stroke="#DDDDDD" stroke-width="2" stroke-linecap="round" stroke-linejoin="round"/>
<path d="M506.646 285.46H50.6007V297.371H506.646V285.46Z" stroke="#DDDDDD" stroke-width="2" stroke-linecap="round" stroke-linejoin="round"/>
<path d="M506.485 1H50.4395V12.9112H506.485V1Z" stroke="#DDDDDD" stroke-width="2" stroke-linecap="round" stroke-linejoin="round"/>
<path d="M435.422 52.1512C414.8 43.987 404.574 66.8727 412.341 81.2504C414.17 84.6192 413.904 87.3607 412.173 91.4514C410.442 95.5422 410.397 98.4641 415.075 100.303C419.754 102.142 421.822 100.045 423.553 95.9547C425.284 91.8639 427.104 89.7326 430.815 88.5639C446.776 83.5794 456.053 60.3155 435.422 52.1512Z" fill="#F9F9F9" stroke="#DDDDDD" stroke-linecap="round" stroke-linejoin="round"/>
<path d="M417.393 95.8945C416.194 91.0217 416.594 87.6357 420.198 86.8107C423.802 85.9857 426.696 84.0091 425.116 81.4567C423.536 78.9043 416.984 78.3113 418.777 81.4051C420.571 84.4989 430.007 83.3903 427.797 80.3652C425.586 77.3401 420.313 74.8307 422.47 74.3494C424.628 73.8682 431.223 76.7558 429.093 74.5041C424.814 69.9923 429.812 69.0384 431.188 64.1914" stroke="#DDDDDD" stroke-linecap="round" stroke-linejoin="round"/>
<path d="M426.199 94.4679C425.47 95.6607 424.841 96.9079 424.317 98.1977C423.922 99.1753 423.447 100.121 422.896 101.025C420.926 104.231 418.289 105.511 413.628 103.672C408.968 101.833 408.036 99.1258 408.95 95.5078C409.207 94.485 409.552 93.4847 409.98 92.5171C410.532 91.2421 410.986 89.9294 411.338 88.5896C415.876 91.4169 420.914 93.4096 426.199 94.4679Z" fill="#F9F9F9" stroke="#DDDDDD" stroke-linecap="round" stroke-linejoin="round"/>
<path d="M426.199 94.4679C425.544 95.5346 424.977 96.6495 424.503 97.8024C424.432 97.9313 424.379 98.0688 424.317 98.1977C423.922 99.1753 423.447 100.121 422.896 101.025C420.988 101.438 418.538 101.094 415.271 99.7962C412.004 98.4985 410.006 97.0891 408.95 95.4992C409.207 94.4764 409.552 93.4761 409.98 92.5085L410.14 92.1046C410.625 90.9589 411.025 89.7815 411.338 88.5811C415.876 91.4113 420.913 93.407 426.199 94.4679Z" fill="#F9F9F9" stroke="#DDDDDD" stroke-linecap="round" stroke-linejoin="round"/>
<path d="M426.199 94.4679C425.544 95.5346 424.977 96.6496 424.503 97.8024C419.367 96.8669 414.48 94.9314 410.14 92.1132C410.625 90.9675 411.025 89.7901 411.338 88.5896C415.876 91.4169 420.914 93.4096 426.199 94.4679Z" fill="#F9F9F9" stroke="#DDDDDD" stroke-linecap="round" stroke-linejoin="round"/>
<path d="M438.929 46.7972L442.826 37.5587" stroke="#DDDDDD" stroke-width="2" stroke-linecap="round" stroke-linejoin="round"/>
<path d="M454.074 60.9772L463.457 59.671" stroke="#DDDDDD" stroke-width="2" stroke-linecap="round" stroke-linejoin="round"/>
<path d="M412.315 48.3871L403.926 39.6814" stroke="#DDDDDD" stroke-width="2" stroke-linecap="round" stroke-linejoin="round"/>
<path d="M425.728 44.7347V38.5986" stroke="#DDDDDD" stroke-linecap="round" stroke-linejoin="round"/>
<path d="M403.899 63.0226L396.859 64.0023" stroke="#DDDDDD" stroke-linecap="round" stroke-linejoin="round"/>
<path d="M450.452 80.0129L453.044 84.3184" stroke="#DDDDDD" stroke-linecap="round" stroke-linejoin="round"/>
<path d="M448.623 53.8013L453.692 51.4723" stroke="#DDDDDD" stroke-linecap="round" stroke-linejoin="round"/>
<path d="M93.8318 94.7257H73.0411C71.2493 102.31 71.7611 110.234 74.5148 117.543L96.3086 117.208C96.3086 117.208 90.4318 104.849 93.8318 94.7257Z" fill="#DDDDDD" stroke="#DDDDDD" stroke-miterlimit="10"/>
<path d="M89.1446 100.415H78.5628" stroke="#F9F9F9" stroke-linecap="round" stroke-linejoin="round"/>
<path d="M88.47 104.858H80.4715" stroke="#F9F9F9" stroke-linecap="round" stroke-linejoin="round"/>
<path d="M88.9848 109.095H77.897" stroke="#F9F9F9" stroke-linecap="round" stroke-linejoin="round"/>
<path d="M78.0302 61.1062H98.0397C99.6022 67.904 98.3531 75.0238 94.5598 80.941L72.908 80.0816C72.908 80.0816 79.5127 70.9033 78.0302 61.1062Z" stroke="#DDDDDD" stroke-linecap="round" stroke-linejoin="round"/>
<path d="M81.6877 65.7383H94.7551" stroke="#DDDDDD" stroke-linecap="round" stroke-linejoin="round"/>
<path d="M81.8741 69.9837H92.3049" stroke="#DDDDDD" stroke-linecap="round" stroke-linejoin="round"/>
<path d="M81.6877 75.5354H86.6146" stroke="#DDDDDD" stroke-linecap="round" stroke-linejoin="round"/>
<path d="M87.7331 75.5354H91.0089" stroke="#DDDDDD" stroke-linecap="round" stroke-linejoin="round"/>
<path d="M127.326 124.667L147.344 124.71C148.915 131.501 147.679 138.617 143.9 144.536L122.257 143.677C122.257 143.677 128.808 134.447 127.326 124.667Z" stroke="#DDDDDD" stroke-linecap="round" stroke-linejoin="round"/>
<path d="M130.983 129.308H144.051" stroke="#DDDDDD" stroke-linecap="round" stroke-linejoin="round"/>
<path d="M131.17 133.545H141.601" stroke="#DDDDDD" stroke-linecap="round" stroke-linejoin="round"/>
<path d="M130.983 139.096H135.91" stroke="#DDDDDD" stroke-linecap="round" stroke-linejoin="round"/>
<path d="M137.029 139.096H140.305" stroke="#DDDDDD" stroke-linecap="round" stroke-linejoin="round"/>
<path d="M293.927 134.602H313.936C315.496 141.397 314.247 148.513 310.456 154.428L288.804 153.569C288.804 153.569 295.4 144.382 293.927 134.602Z" stroke="#DDDDDD" stroke-linecap="round" stroke-linejoin="round"/>
<path d="M297.575 139.242H310.643" stroke="#DDDDDD" stroke-linecap="round" stroke-linejoin="round"/>
<path d="M297.762 143.479H308.193" stroke="#DDDDDD" stroke-linecap="round" stroke-linejoin="round"/>
<path d="M297.575 149.031H302.502" stroke="#DDDDDD" stroke-linecap="round" stroke-linejoin="round"/>
<path d="M303.621 149.031H306.896" stroke="#DDDDDD" stroke-linecap="round" stroke-linejoin="round"/>
<path d="M361.394 59.2756L341.385 59.3186C339.825 66.1137 341.074 73.23 344.865 79.1449L366.516 78.2855C366.516 78.2855 359.93 69.0556 361.394 59.2756Z" stroke="#DDDDDD" stroke-linecap="round" stroke-linejoin="round"/>
<path d="M357.755 63.9164H344.687" stroke="#DDDDDD" stroke-linecap="round" stroke-linejoin="round"/>
<path d="M357.568 68.1532H347.146" stroke="#DDDDDD" stroke-linecap="round" stroke-linejoin="round"/>
<path d="M357.755 73.7049H352.828" stroke="#DDDDDD" stroke-linecap="round" stroke-linejoin="round"/>
<path d="M351.709 73.7049H348.433" stroke="#DDDDDD" stroke-linecap="round" stroke-linejoin="round"/>
<path d="M230.001 35.1868V238.013" stroke="#DDDDDD" stroke-linecap="round" stroke-linejoin="round"/>
<path d="M334.487 86.2865C329.631 72.3643 327.492 67.3798 324.722 64.3633C321.952 61.3469 314.114 58.1413 314.114 58.1413C314.114 58.1413 310.847 45.8863 306.666 46.2817C302.484 46.677 309.418 62.9797 309.418 62.9797L305.742 78.9817C306.934 80.8596 307.862 82.8826 308.503 84.9974C311.362 94.0899 319.2 94.9493 321.357 102.581C321.224 102.142 334.443 94.4766 334.487 86.2865Z" fill="#FEBD9D"/>
<path d="M334.487 86.2865C329.631 72.3643 327.492 67.3798 324.722 64.3633C321.952 61.3469 314.114 58.1413 314.114 58.1413C314.114 58.1413 310.847 45.8863 306.666 46.2817C302.484 46.677 309.418 62.9797 309.418 62.9797L305.742 78.9817C306.934 80.8596 307.862 82.8826 308.503 84.9974C311.362 94.0899 319.2 94.9493 321.357 102.581C321.224 102.142 334.443 94.4766 334.487 86.2865Z" fill="#FEBD9D"/>
<path d="M324.731 64.3633C321.979 61.2953 314.122 58.1413 314.122 58.1413C314.122 58.1413 310.856 45.8863 306.674 46.2817C302.493 46.677 309.426 62.9797 309.426 62.9797L305.751 78.9817" stroke="#F4A789" stroke-width="0.75" stroke-linecap="round" stroke-linejoin="round"/>
<path d="M301.597 72.7167C305.05 70.0697 310.971 79.7637 307.393 82.4107C304.828 84.3099 298.312 75.2003 301.597 72.7167Z" fill="#FEBD9D" stroke="#F4A789" stroke-miterlimit="10"/>
<path d="M314.122 58.1413C311.371 57.0929 311.024 61.5789 313.43 63.2977C315.836 65.0165 317.372 65.3774 317.718 66.4603C318.064 67.5431 318.748 70.9377 318.748 70.9377C317.976 73.0825 317.681 75.3608 317.881 77.6237C318.082 79.8865 318.773 82.0829 319.911 84.0693" stroke="#F4A789" stroke-width="0.75" stroke-linecap="round" stroke-linejoin="round"/>
<path d="M304.18 67.1736C307.633 64.5266 314.948 76.6269 311.371 79.2567C308.814 81.1474 300.895 69.683 304.18 67.1736Z" fill="#FEBD9D" stroke="#F4A789" stroke-miterlimit="10"/>
<path d="M307.18 63.2547C310.634 60.6078 317.957 72.7081 314.38 75.3378C311.823 77.2285 303.905 65.747 307.18 63.2547Z" fill="#FEBD9D" stroke="#F4A789" stroke-miterlimit="10"/>
<path d="M321.846 111.398L317.185 102.589C317.185 102.589 328.584 95.0352 334.487 86.2608L338.402 92.6117C338.402 92.6117 333.724 112.524 321.846 111.398Z" fill="white"/>
<path d="M389.979 153.852C374.08 131.671 353.715 109.843 350.821 106.792C349.289 105.04 347.136 103.906 344.785 103.612L337.683 91.4C337.683 91.4 329.933 102.572 317.185 108.588L323.63 120.551C323.63 120.551 321.659 122.003 325.991 130.812C330.324 139.621 347.093 173.266 355.571 179.944C375.846 195.911 410.876 183.012 389.979 153.852Z" fill="#7879F1"/>
<path d="M333.954 113.727L326.782 102.589" stroke="#6A6BEA" stroke-width="0.75" stroke-linecap="round" stroke-linejoin="round"/>
<path d="M329.676 116.494L322.627 105.554" stroke="#6A6BEA" stroke-width="0.75" stroke-linecap="round" stroke-linejoin="round"/>
<path d="M334.487 95.3446L342.05 107.093" stroke="#6A6BEA" stroke-width="0.75" stroke-linecap="round" stroke-linejoin="round"/>
<path d="M330.696 99.0486L338.269 110.797" stroke="#6A6BEA" stroke-width="0.75" stroke-linecap="round" stroke-linejoin="round"/>
<path d="M389.979 153.852C374.08 131.671 353.715 109.843 350.821 106.792C349.289 105.04 347.136 103.906 344.785 103.612L337.683 91.4" stroke="#6A6BEA" stroke-width="0.75" stroke-linecap="round" stroke-linejoin="round"/>
<path d="M538.222 364.026H450.443V297.071L528.945 296.014C534.99 320.704 538.222 364.026 538.222 364.026Z" fill="#683F1D"/>
<path d="M493.178 364.026C493.178 364.026 490.302 337.058 490.009 334.489C489.923 333.809 489.609 333.175 489.115 332.684C488.621 332.193 487.975 331.873 487.275 331.773C485.591 331.437 483.854 331.437 482.17 331.773" stroke="#7F542D" stroke-width="0.75" stroke-linecap="round" stroke-linejoin="round"/>
<path d="M544.542 201.385C543.14 223.807 538.328 258.664 534.999 280.871C533.126 293.375 531.75 301.875 531.75 301.875C531.75 301.875 475.583 303.989 460.323 303.593C445.063 303.198 443.394 302.107 443.394 296.151C443.394 290.195 443.651 215.823 443.651 215.823C443.651 215.823 368.301 190.041 357.453 181.284C346.605 172.527 359.592 143.746 387.485 149.65C394.498 151.137 401.466 152.649 408.586 154.17C429.75 158.716 452.2 163.288 480.35 167.156C510.924 171.384 530.063 171.625 543.131 179.944C545.066 181.172 545.288 189.552 544.542 201.385Z" fill="#7879F1"/>
<path d="M524.258 223.927C512.389 231.215 512.362 241.468 517.005 249.409C527.711 267.688 496.587 255.811 495.247 278.482L540.308 268.118L524.258 223.927Z" fill="#6A6BEA"/>
<path d="M561.019 208.407C555.871 205.38 550.33 203.03 544.542 201.42C534.964 198.842 525.722 199.383 519.588 205.502C518.491 206.593 517.534 207.807 516.738 209.12C501.372 234.043 458.406 229.496 450.443 203.216C443.669 180.872 433.221 166.984 408.586 154.23C429.75 158.716 452.2 163.288 480.35 167.156C510.924 171.384 530.063 171.625 543.131 179.944C549.185 182.419 555.497 193.745 561.019 208.407Z" fill="#7879F1"/>
<path d="M483.218 165.531C473.204 165.531 465.081 171.728 465.081 179.359C465.081 183.656 467.656 187.506 471.704 190.041C473.662 191.262 475.83 192.135 478.104 192.62C479.781 192.996 481.497 193.184 483.218 193.178C483.599 193.178 483.972 193.178 484.345 193.178C486.759 193.076 489.138 192.586 491.385 191.726C493.512 190.942 495.467 189.776 497.146 188.288C498.446 187.172 499.493 185.806 500.22 184.278C500.948 182.75 501.34 181.093 501.372 179.411C501.372 171.728 493.249 165.531 483.218 165.531ZM489.228 186.062C487.455 186.593 485.614 186.882 483.759 186.922H483.218C481.765 186.927 480.316 186.783 478.894 186.492C477.067 186.147 475.313 185.502 473.71 184.584C471.136 183.08 469.538 180.966 469.538 178.629C469.538 174.039 475.663 170.327 483.218 170.327C490.772 170.327 496.907 174.039 496.907 178.629C496.907 180.648 495.717 182.496 493.728 183.94C492.368 184.896 490.845 185.615 489.228 186.062V186.062Z" stroke="#6A6BEA" stroke-width="0.75" stroke-linecap="round" stroke-linejoin="round"/>
<path d="M474.198 161.999C470.807 162.627 467.034 163.718 465.144 166.864C463.253 170.009 463.164 183.115 464.895 184.55C466.626 185.985 468.934 179.127 479.258 175.784L474.198 161.999Z" fill="white"/>
<path d="M487.94 176.403L498.478 160.281C498.478 160.281 504.071 163.151 504.976 168.333C505.882 173.515 503.431 190.506 498.993 186.2C495.841 183.192 496.551 180.708 487.94 176.403Z" fill="white"/>
<path d="M471.704 190.041L473.71 184.558" stroke="#6A6BEA" stroke-width="0.75" stroke-linecap="round" stroke-linejoin="round"/>
<path d="M478.104 192.628L478.894 186.466" stroke="#6A6BEA" stroke-width="0.75" stroke-linecap="round" stroke-linejoin="round"/>
<path d="M484.345 193.161L483.759 186.887" stroke="#6A6BEA" stroke-width="0.75" stroke-linecap="round" stroke-linejoin="round"/>
<path d="M491.385 191.709L489.228 186.045" stroke="#6A6BEA" stroke-width="0.75" stroke-linecap="round" stroke-linejoin="round"/>
<path d="M497.146 188.237L493.729 183.914" stroke="#6A6BEA" stroke-width="0.75" stroke-linecap="round" stroke-linejoin="round"/>
<path d="M500.076 162.463C500.156 164.474 495.921 177.692 484.168 178.792C472.414 179.892 470.692 167.499 470.763 164.242C470.763 162.927 470.914 160.607 471.082 157.702C471.313 153.715 471.624 148.636 471.855 143.6L471.908 142.5C473.204 113.28 499.117 119.115 497.501 134.602C496.516 144.15 499.978 160.461 500.076 162.463Z" fill="#FEBD9D"/>
<path d="M471.082 157.702C471.313 153.715 471.624 148.636 471.855 143.6L486.209 141.451C486.733 150.312 482.312 157.934 471.082 157.702Z" fill="#F4A789"/>
<path d="M529.176 265.78C529.176 265.608 529.078 265.436 529.034 265.256C525.012 249.606 521.674 233.235 520.272 218.943" stroke="#6A6BEA" stroke-width="0.75" stroke-linecap="round" stroke-linejoin="round"/>
<path d="M463.483 246.134C462.187 240.686 465.579 239.087 468.535 238.107C468.259 236.569 468.845 234.077 472.37 233.544C475.708 233.037 476.906 236.217 476.906 236.217C476.906 236.217 483.928 233.914 485.703 240.832L463.483 246.134Z" fill="#DDDDDD"/>
<path d="M446.43 247.655L499.472 235.787L519.588 318.298L466.084 328.722L446.43 247.655Z" fill="#F9F9F9" stroke="#DDDDDD" stroke-linecap="round" stroke-linejoin="round"/>
<path d="M470.585 237.729C470.584 238.187 470.722 238.635 470.983 239.016C471.245 239.397 471.617 239.695 472.053 239.871C472.49 240.048 472.97 240.095 473.434 240.006C473.898 239.918 474.324 239.699 474.659 239.376C474.994 239.053 475.222 238.641 475.315 238.192C475.408 237.743 475.361 237.278 475.18 236.855C475 236.432 474.694 236.071 474.301 235.816C473.908 235.562 473.446 235.426 472.973 235.426C472.342 235.426 471.735 235.669 471.288 236.1C470.84 236.532 470.588 237.118 470.585 237.729Z" fill="#F9F9F9" stroke="#DDDDDD" stroke-linecap="round" stroke-linejoin="round"/>
<path d="M577.113 282.598C577.13 284.234 577.053 285.869 576.882 287.497V287.738C576.827 288.068 576.749 288.396 576.651 288.717C574.485 295.592 560.779 302.081 548.049 294.948C546.932 294.322 545.864 293.618 544.853 292.842C540.729 289.547 537.369 285.447 534.99 280.811C532.455 276.036 530.504 270.992 529.176 265.78C529.176 265.608 529.078 265.436 529.034 265.256C523.707 244.39 519.517 222.234 519.553 205.468C519.553 185.255 525.705 172.862 543.131 179.961C549.15 182.419 555.461 193.711 560.983 208.372C565.656 221.076 569.426 234.075 572.266 247.277C575.338 261.002 577.113 273.875 577.113 282.598Z" fill="#7879F1"/>
<path d="M576.918 287.523V287.763C576.862 288.094 576.785 288.421 576.687 288.743C574.521 295.618 560.814 302.107 548.084 294.974C546.968 294.347 545.9 293.644 544.888 292.868C548.771 290.928 553.14 290.085 557.494 290.436C580.921 292.481 556.065 267.43 572.328 247.277C575.32 261.028 577.149 273.876 577.175 282.598C577.287 284.244 577.201 285.896 576.918 287.523Z" fill="#6A6BEA"/>
<path d="M561.019 208.407C555.871 205.38 550.33 203.03 544.542 201.42C534.964 198.841 525.722 199.383 519.588 205.502C519.588 185.289 525.74 172.896 543.166 179.995C549.185 182.418 555.497 193.745 561.019 208.407Z" fill="#7879F1"/>
<path d="M472.423 282.968C470.976 282.109 462.409 277.313 459.924 277.158C457.438 277.004 452.138 280.553 452.138 280.553C452.138 280.553 441.619 281.155 440.456 282.968C439.293 284.781 441.654 287.334 443.465 288.245C445.276 289.156 443.572 291.029 443.802 292.542C444.033 294.054 445.986 295.12 446.217 296.16C446.448 297.2 445.436 300.036 447.85 300.732C450.265 301.428 448.738 302.863 449.954 304.9C451.171 306.936 458.601 306.558 477.474 302.94L472.423 282.968Z" fill="#FEBD9D"/>
<path d="M459.932 277.158C457.438 277.012 452.147 280.553 452.147 280.553C452.147 280.553 441.627 281.155 440.464 282.968C439.302 284.781 441.663 287.334 443.474 288.245C445.285 289.156 443.58 291.029 443.811 292.542C444.042 294.054 445.995 295.12 446.226 296.16C446.457 297.2 445.445 300.036 447.859 300.732C450.274 301.428 448.747 302.863 449.963 304.9C450.451 305.699 451.898 306.129 454.615 306.129" stroke="#F4A789" stroke-width="0.75" stroke-linecap="round" stroke-linejoin="round"/>
<path d="M471.1 281.318L474.891 304.797L482.889 303.654L480.404 280.742L471.1 281.318Z" fill="white"/>
<path d="M576.891 287.763C576.82 288.09 576.749 288.425 576.66 288.743C574.548 296.796 565.635 302.004 541.204 303.654C539.074 303.803 536.964 303.934 534.875 304.049C505.899 305.716 480.839 305.235 480.839 305.235L477.066 280.149C490.204 276.376 512.033 269.226 529.211 265.78C536.313 264.362 542.571 263.563 547.143 263.889C552.351 264.163 557.512 264.984 562.537 266.339C563.873 266.712 565.184 267.168 566.46 267.705C572.337 270.283 576.287 274.34 577.033 280.957C577.095 281.507 577.14 282.057 577.184 282.581C577.3 284.314 577.201 286.053 576.891 287.763Z" fill="#7879F1"/>
<path d="M547.143 263.889C542.571 263.563 536.286 264.362 529.211 265.78C512.033 269.218 490.204 276.376 477.066 280.149L480.839 305.235" stroke="#6A6BEA" stroke-width="0.75" stroke-linecap="round" stroke-linejoin="round"/>
<path d="M477.518 283.123L492.894 280.742" stroke="#6A6BEA" stroke-width="0.75" stroke-linecap="round" stroke-linejoin="round"/>
<path d="M478.246 287.944L493.187 286.139" stroke="#6A6BEA" stroke-width="0.75" stroke-linecap="round" stroke-linejoin="round"/>
<path d="M478.797 291.648L493.551 290.436" stroke="#6A6BEA" stroke-width="0.75" stroke-linecap="round" stroke-linejoin="round"/>
<path d="M479.613 297.079L493.853 296.014" stroke="#6A6BEA" stroke-width="0.75" stroke-linecap="round" stroke-linejoin="round"/>
<path d="M480.404 301.505L494.368 300.147" stroke="#6A6BEA" stroke-width="0.75" stroke-linecap="round" stroke-linejoin="round"/>
<path d="M452.138 280.596C455.946 280.218 459.373 280.063 459.373 280.063" stroke="#F4A789" stroke-width="0.75" stroke-linecap="round" stroke-linejoin="round"/>
<path d="M576.891 287.763C576.835 288.094 576.758 288.421 576.66 288.743C574.548 296.796 565.635 302.004 541.204 303.654C539.074 303.803 536.964 303.934 534.875 304.049C540.308 291.038 552.372 289.989 557.468 290.436C573.154 291.811 567.233 281.043 566.425 267.722C572.302 270.3 576.252 274.357 576.998 280.974C577.06 281.524 577.104 282.074 577.149 282.598C577.274 284.324 577.188 286.058 576.891 287.763Z" fill="#6A6BEA"/>
<path d="M495.806 115.214C495.223 119.382 494.185 123.479 492.708 127.434C490.408 133.227 486.689 138.289 480.625 138.246C479.986 138.238 479.347 138.18 478.717 138.074L462.596 131.671C462.596 131.671 462.667 131.37 462.826 130.812C463.959 127.018 465.617 123.39 467.753 120.026C467.94 119.743 468.144 119.459 468.339 119.167C472.174 113.538 476.009 109.035 476.009 109.035C476.009 109.035 476.231 103.646 480.776 102.856C485.322 102.065 497.066 106.998 495.806 115.214Z" fill="#FEBD9D"/>
<path d="M492.708 127.434C490.408 133.227 486.689 138.289 480.625 138.246C479.529 137.568 478.608 136.656 477.933 135.58C477.258 134.504 476.847 133.292 476.731 132.038C476.616 130.783 476.799 129.52 477.267 128.346C477.735 127.171 478.475 126.115 479.43 125.261C480.385 124.406 481.53 123.775 482.776 123.416C484.023 123.056 485.338 122.979 486.62 123.189C487.903 123.399 489.118 123.891 490.174 124.627C491.229 125.363 492.096 126.323 492.708 127.434Z" fill="#F4A789"/>
<path d="M468.934 123.868C468.934 125.539 468.323 127.155 467.21 128.432C466.098 129.709 464.554 130.564 462.853 130.846C463.986 127.053 465.643 123.425 467.78 120.061C468.535 121.196 468.936 122.518 468.934 123.868Z" fill="#F4A789"/>
<path d="M506.228 116.322C505.5 118.333 503.023 124.53 501.656 127.941C501.097 129.325 500.715 130.253 500.715 130.253L496.791 128.87L493.977 127.881L492.983 127.538C492.983 127.538 492.983 127.941 492.876 128.646C492.593 131.263 492.073 133.851 491.323 136.381C490.434 139.528 488.983 142.501 487.035 145.164C481.709 152.039 467.878 151.334 461.495 146.023C457.056 142.293 457.944 135.47 461.806 128.371C463.636 125.092 465.837 122.02 468.366 119.21C468.366 119.21 465.25 126.283 464.744 127.804C464.131 129.703 466.431 129.523 467.318 127.907C468.206 126.291 469.919 125.174 474.891 126.463C479.862 127.752 481.886 130.245 480.963 133.725C480.421 135.779 484.363 136.492 487.266 133.785C487.514 133.555 487.746 133.308 487.958 133.046C488.357 132.569 488.699 132.05 488.979 131.499C491.642 126.248 493.196 118.213 493.347 115.051C490.373 115.231 487.807 113.04 489.494 110.315C486.005 111.733 483.413 109.31 484.008 106.078C482.499 108.373 479.107 108.227 478.681 105.511L476.018 109.035C475.505 107.7 475.264 106.282 475.308 104.858C475.503 100.561 479.276 98.997 482.259 99.9853C482.721 96.8829 490.249 96.2641 490.799 100.699C492.415 97.811 497.768 98.404 497.901 102.864C498.597 102.498 499.395 102.358 500.18 102.462C500.964 102.567 501.693 102.912 502.261 103.447C502.828 103.982 503.204 104.679 503.333 105.435C503.462 106.191 503.338 106.968 502.979 107.651C505.42 107.135 506.982 110.229 504.878 112.447C504.905 112.49 507.266 113.495 506.228 116.322Z" fill="#BF8228"/>
<path d="M480.35 119.889C480.35 120.117 480.42 120.339 480.551 120.529C480.681 120.718 480.867 120.866 481.085 120.953C481.302 121.04 481.541 121.063 481.772 121.018C482.003 120.974 482.215 120.864 482.381 120.703C482.547 120.542 482.661 120.337 482.707 120.114C482.752 119.89 482.729 119.659 482.639 119.448C482.549 119.238 482.396 119.058 482.201 118.931C482.005 118.805 481.775 118.737 481.54 118.737C481.224 118.737 480.922 118.859 480.699 119.075C480.476 119.291 480.35 119.584 480.35 119.889Z" fill="#683F1D"/>
<path d="M472.742 117.422C472.741 117.651 472.809 117.875 472.939 118.065C473.069 118.256 473.255 118.405 473.473 118.493C473.69 118.582 473.93 118.605 474.162 118.561C474.393 118.517 474.606 118.407 474.773 118.245C474.94 118.084 475.053 117.878 475.099 117.654C475.145 117.429 475.12 117.197 475.029 116.986C474.938 116.776 474.784 116.596 474.587 116.47C474.39 116.344 474.159 116.278 473.923 116.279C473.611 116.282 473.312 116.403 473.091 116.617C472.87 116.831 472.745 117.12 472.742 117.422Z" fill="#683F1D"/>
<path d="M482.747 113.822C482.135 115.876 488.358 117.904 488.624 116.649C488.819 115.747 483.653 110.779 482.747 113.822Z" fill="#BF8228"/>
<path d="M473.923 111.097C473.559 112.197 478.788 114.097 479.4 112.249C480.128 110.049 474.243 110.152 473.923 111.097Z" fill="#BF8228"/>
<path d="M496.791 128.87L492.983 127.538C492.744 130.541 492.188 133.513 491.323 136.407C490.089 136.587 488.659 135.96 487.266 133.828C487.97 133.168 488.549 132.395 488.979 131.542C491.642 126.291 493.196 118.256 493.347 115.094C490.373 115.274 487.807 113.083 489.494 110.358C486.005 111.776 483.413 109.353 484.008 106.121C482.499 108.416 479.107 108.27 478.681 105.554L476.018 109.078C475.505 107.743 475.264 106.325 475.308 104.901C476.746 103.483 478.717 102.503 480.368 102.993C480.368 102.993 484.709 104.007 486.236 101.996C485.393 105.228 488.801 108.304 492.823 106.981C492.823 106.981 494.226 112.85 499.135 112.842C499.135 112.842 498.602 118.093 501.407 118.574C503.529 118.926 499.241 124.848 496.791 128.87Z" fill="#BF8228"/>
<path d="M492.876 128.646C492.593 131.263 492.073 133.851 491.323 136.381C490.434 139.528 488.983 142.501 487.035 145.164C481.709 152.039 467.878 151.334 461.495 146.023C457.056 142.293 457.944 135.47 461.806 128.371C462.356 140.652 474.411 147.69 487.266 133.828L487.958 133.089C489.466 131.478 491.111 129.991 492.876 128.646Z" fill="#BF8228"/>
<path d="M501.656 127.941C501.097 129.325 500.715 130.253 500.715 130.253L496.791 128.87L493.977 127.881C498.327 125.088 500.537 126.291 501.656 127.941Z" fill="#BF8228"/>
<path d="M491.482 135.831C492.257 133.119 492.759 130.342 492.983 127.538C495.433 125.389 499.729 125.458 501.691 127.847C502.23 128.511 502.57 129.304 502.677 130.142C503.431 135.358 498.93 140.85 491.482 135.831Z" fill="#FEBD9D"/>
<path d="M497.12 137.807C495.072 137.743 493.098 137.051 491.482 135.831" stroke="#F4A789" stroke-width="0.75" stroke-linecap="round" stroke-linejoin="round"/>
<path d="M470.754 122.63C471.145 120.448 472.396 120.448 474.758 120.052C477.119 119.657 478.948 117.62 478.69 115.558" stroke="#F4A789" stroke-width="0.75" stroke-linecap="round" stroke-linejoin="round"/>
<path d="M494.598 131.061C494.98 130.651 495.457 130.334 495.989 130.136C496.521 129.938 497.095 129.865 497.662 129.923C498.229 129.981 498.774 130.168 499.252 130.469C499.73 130.77 500.128 131.176 500.413 131.654" stroke="#F4A789" stroke-width="0.75" stroke-linecap="round" stroke-linejoin="round"/>
<path d="M495.726 130.288C499.756 129.918 499.144 135.779 495.246 134.696" stroke="#F4A789" stroke-width="0.75" stroke-linecap="round" stroke-linejoin="round"/>
<path d="M459.373 143.282C463.173 140.815 468.25 142.061 472.343 145.602C477.785 150.312 486.68 145.602 486.68 145.602" stroke="#7F542D" stroke-width="0.75" stroke-linecap="round" stroke-linejoin="round"/>
<path d="M490.71 138.246C488.491 139.964 480.057 144.7 473.985 140.325C467.913 135.951 458.752 141.434 458.752 141.434" stroke="#7F542D" stroke-width="0.75" stroke-linecap="round" stroke-linejoin="round"/>
<path d="M458.92 135.65C460.882 133.931 468.029 130.262 472.68 135.16C477.332 140.059 483.395 135.582 483.395 135.582" stroke="#7F542D" stroke-width="0.75" stroke-linecap="round" stroke-linejoin="round"/>
<path d="M467.034 128.371C468.162 129.566 476.222 132.307 480.91 130.649" stroke="#7F542D" stroke-width="0.75" stroke-linecap="round" stroke-linejoin="round"/>
<path d="M478.664 105.554C478.166 103.088 480.439 100.192 482.277 100.028" stroke="#7F542D" stroke-width="0.75" stroke-linecap="round" stroke-linejoin="round"/>
<path d="M484.008 106.139C484.372 104.179 486.786 99.4783 490.222 99.2634" stroke="#7F542D" stroke-width="0.75" stroke-linecap="round" stroke-linejoin="round"/>
<path d="M489.494 110.358C490.382 106.543 492.983 102.435 497.12 100.742" stroke="#7F542D" stroke-width="0.75" stroke-linecap="round" stroke-linejoin="round"/>
<path d="M493.347 115.093C493.897 110.925 499.854 107.479 503.005 107.694" stroke="#7F542D" stroke-width="0.75" stroke-linecap="round" stroke-linejoin="round"/>
<path d="M492.406 121.23C496.267 118.015 502.961 115.171 506.494 114.939" stroke="#7F542D" stroke-width="0.75" stroke-linecap="round" stroke-linejoin="round"/>
<path d="M471.198 129.428C474.687 130.159 478.593 129.763 478.468 129.918C478.344 130.073 477.74 135.074 473.923 134.55C470.106 134.026 471.198 129.428 471.198 129.428Z" fill="white" stroke="#F4A789" stroke-width="0.75" stroke-linecap="round" stroke-linejoin="round"/>
<path d="M371.284 145.611C373.68 139.139 376.841 132.574 378.314 133.442C380.809 134.911 375.864 147.493 375.864 147.493L371.284 145.611Z" fill="#B25E47" stroke="#914839" stroke-width="0.75" stroke-miterlimit="10"/>
<path d="M368.194 147.089C368.194 146.685 369.668 128.182 372.455 128.603C376.237 129.153 373.228 147.51 373.228 147.51L368.194 147.089Z" fill="#B25E47" stroke="#914839" stroke-width="0.75" stroke-miterlimit="10"/>
<path d="M363.631 149.701C363.525 131.164 363.898 126.394 366.223 126.386C369.437 126.386 369.854 147.742 369.854 147.742L363.631 149.701Z" fill="#B25E47" stroke="#914839" stroke-width="0.75" stroke-miterlimit="10"/>
<path d="M374.364 148.576C373.805 157.333 373.538 161.982 373.538 161.982C373.538 161.982 365.442 166.279 364.918 155.76C364.395 145.241 374.364 148.576 374.364 148.576Z" fill="#B25E47" stroke="#914839" stroke-width="0.75" stroke-miterlimit="10"/>
<path d="M328.078 203.053C317.38 218.41 304.313 239.757 314.868 246.607C325.423 253.456 339.485 250.663 347.892 231.825C356.299 212.987 366.667 180.193 368.745 176.961C370.822 173.73 375.651 169.931 378.767 163.692C381.883 157.453 383.374 157.109 382.318 155.33C381.262 153.551 378.634 154.213 377.249 156.19C375.864 158.166 372.18 161.991 370.103 160.873C368.025 159.756 367.147 157.505 367.111 154.746C367.076 151.987 368.771 149.022 372.029 149.985C375.287 150.947 376.787 155.081 379.548 153.629C382.309 152.176 376.441 146.607 374.364 144.82C372.287 143.032 370.68 144.261 367.262 145.379C363.844 146.496 362.77 146.607 361.048 150.535C359.326 154.462 352.756 167.319 351.718 169.656C350.679 171.994 338.1 188.641 328.078 203.053Z" fill="#B25E47"/>
<path d="M378.767 163.718C381.874 157.47 383.374 157.135 382.318 155.356C381.262 153.577 378.634 154.239 377.249 156.216C375.864 158.192 372.18 162.016 370.103 160.899C368.025 159.782 367.147 157.53 367.111 154.772C367.076 152.013 368.771 149.048 372.029 150.011C375.287 150.973 376.787 155.107 379.548 153.655C382.309 152.202 376.441 146.633 374.364 144.846C372.287 143.058 370.68 144.287 367.262 145.404C363.844 146.522 362.77 146.633 361.048 150.561" stroke="#914839" stroke-width="0.75" stroke-linecap="round" stroke-linejoin="round"/>
<path d="M325.432 206.911C323.595 209.644 321.748 212.497 320.017 215.376" stroke="#914839" stroke-width="0.75" stroke-linecap="round" stroke-linejoin="round"/>
<path d="M163.794 217.654C160.864 222.062 166.901 225.388 172.352 228.826C177.802 232.264 179.232 216.622 179.232 216.622C179.232 216.622 165.41 215.222 163.794 217.654Z" fill="#FCC71F"/>
<path d="M326.861 198.549C328.708 199.89 325.974 204.35 320.727 209.309L316.422 203.929C316.422 203.929 322.556 197.011 326.861 198.549Z" fill="#FCC71F"/>
<path d="M318.162 199.89C330.448 212.48 344.705 229.049 337.132 241.631C329.56 254.212 311.486 247.535 300.549 237.884C300.549 237.884 291.645 221.298 318.162 199.89Z" fill="#B25E47"/>
<path d="M172.245 217.301C167.522 227.451 153.86 250.122 168.339 259.472C182.818 268.822 200.43 236.019 200.43 236.019C200.43 236.019 195.051 216.408 172.245 217.301Z" fill="#B25E47"/>
<path d="M326.861 198.549C316.952 205.654 309.188 215.197 304.375 226.188C302.65 229.935 301.367 233.858 300.549 237.884C297.708 235.89 290.997 231.009 290.997 231.009C290.5 234.042 289.852 237.532 289.222 241.055C287.277 251.17 285.04 261.483 285.04 261.483H218.629L217.511 257.186L208.828 223.876L200.431 236.002C200.262 235.804 200.093 235.615 199.907 235.435C190.142 225.216 163.794 217.637 163.794 217.637C170.953 205.946 179.497 195.104 189.254 185.332C192.11 182.509 195.112 179.827 198.247 177.297C202.637 173.93 207.451 171.117 212.575 168.926C218.4 166.364 224.437 164.28 230.622 162.695C230.622 162.695 230.764 149.014 232.309 132.84C232.993 125.544 248.288 124.117 251.839 136.527C255.39 148.936 258.053 156.912 258.053 156.912C261.873 156.366 265.736 156.167 269.594 156.319C274.485 156.508 280.051 157.376 284.41 159.808C286.754 161.123 291.432 165.05 296.838 169.923C309.755 181.551 326.861 198.549 326.861 198.549Z" fill="#FED81D"/>
<path d="M304.375 226.188C302.65 229.935 301.367 233.858 300.549 237.884C297.708 235.89 290.997 231.009 290.997 231.009C292.984 221.592 293.966 212.002 293.926 202.391C293.903 198.159 292.857 193.992 290.873 190.222C297.034 193.582 302.147 197.243 299.155 205.218C296.323 212.609 296.758 224.95 304.375 226.188Z" fill="#FCC71F"/>
<path d="M239.952 259.73L217.511 257.152L208.828 223.876C211.215 220.085 213.293 216.12 215.043 212.016C224.009 222.329 205.118 234.36 234.511 240.634C249.176 243.779 239.952 259.73 239.952 259.73Z" fill="#FCC71F"/>
<path d="M296.865 169.94C289.079 170.628 281.516 176.368 276.767 191.709C268.209 219.355 236.925 216.107 226.166 196.977C217.741 181.989 207.364 180.304 189.236 185.349C192.093 182.526 195.094 179.844 198.229 177.314C202.619 173.947 207.434 171.134 212.557 168.943C218.382 166.381 224.419 164.297 230.605 162.712C230.605 162.712 230.747 149.031 232.291 132.857C232.975 125.561 248.27 124.134 251.821 136.544C255.372 148.954 258.035 156.929 258.035 156.929C261.855 156.383 265.718 156.184 269.576 156.336C274.467 156.525 280.033 157.393 284.392 159.825C286.771 161.14 291.45 165.067 296.865 169.94Z" fill="#FED81D"/>
<path d="M269.611 156.336C269.754 165.609 261.453 171.805 251.928 173.257C242.403 174.71 226.601 173.627 212.575 168.96C218.4 166.398 224.437 164.314 230.622 162.73C230.622 162.73 230.764 149.048 232.309 132.874C232.993 125.578 248.288 124.151 251.839 136.561C252.647 139.354 253.41 141.924 254.094 144.227C255.559 149.082 256.704 152.769 257.379 154.883C257.805 156.224 258.044 156.946 258.044 156.946C261.872 156.393 265.745 156.188 269.611 156.336Z" fill="#B25E47"/>
<path d="M257.396 154.866C248.981 155.519 244.08 150.69 244.142 144.236C244.142 144.236 250.037 144.236 254.112 144.236C255.576 149.108 256.722 152.752 257.396 154.866Z" fill="#914839"/>
<path d="M292.515 364.026H201.602C201.602 364.026 197.918 320.317 203.449 297.071C205.684 287.73 208.652 278.568 212.326 269.664C213.928 265.675 215.735 261.765 217.741 257.951L285.049 261.492C285.724 264.121 286.336 266.854 286.905 269.664C294.814 309.248 292.515 364.026 292.515 364.026Z" fill="#7879F1"/>
<path d="M229.122 163.091C229.122 163.091 240.236 181.671 253.783 189.62C253.783 189.62 261.311 178.964 260.077 156.671" stroke="#683F1D" stroke-miterlimit="10"/>
<path d="M250.108 190.187C250.108 190.934 250.337 191.663 250.765 192.283C251.193 192.904 251.802 193.387 252.514 193.673C253.226 193.959 254.009 194.033 254.765 193.888C255.521 193.742 256.216 193.383 256.761 192.855C257.306 192.328 257.677 191.655 257.827 190.923C257.978 190.192 257.901 189.433 257.606 188.744C257.311 188.054 256.811 187.465 256.17 187.051C255.529 186.636 254.776 186.415 254.005 186.415C252.972 186.415 251.98 186.812 251.249 187.52C250.519 188.227 250.108 189.187 250.108 190.187Z" fill="white"/>
<path d="M290.997 231.017C292.985 221.598 293.967 212.005 293.927 202.391C293.903 198.159 292.857 193.992 290.873 190.222C289.222 186.784 287.437 183.63 287.064 179.393" stroke="#FCC71F" stroke-width="0.75" stroke-linecap="round" stroke-linejoin="round"/>
<path d="M216.179 209.378C216.179 209.378 215.762 210.426 215.052 212.033C213.301 216.137 211.224 220.102 208.837 223.893" stroke="#FCC71F" stroke-width="0.75" stroke-linecap="round" stroke-linejoin="round"/>
<path d="M286.825 269.664H212.255C213.857 265.675 215.664 261.765 217.67 257.951L285.049 261.492C285.679 264.121 286.292 266.846 286.825 269.664Z" fill="#6A6BEA"/>
<path d="M257.201 269.664V289.319" stroke="#6A6BEA" stroke-width="0.75" stroke-linecap="round" stroke-linejoin="round"/>
<path d="M258.763 290.642C260.876 289.516 262.092 288.984 262.314 287.746C262.536 286.509 263.593 272.861 263.593 272.861" stroke="#6A6BEA" stroke-width="0.75" stroke-linecap="round" stroke-linejoin="round"/>
<path d="M256.198 364.026C256.198 364.026 256.731 309.222 257.174 306.73C257.172 306.704 257.172 306.679 257.174 306.653C257.627 305.836 258.541 304.625 263.566 301.78" stroke="#6A6BEA" stroke-width="0.75" stroke-linecap="round" stroke-linejoin="round"/>
<path d="M146.119 165.308C150.611 163.641 155.502 163.976 161.752 166.863C169.067 170.249 175.405 178.955 172.316 190.927C171.81 192.86 164.034 196.882 162.746 195.997C161.459 195.112 171.65 170.593 146.119 165.308Z" fill="white"/>
<path d="M226.77 133.106C222.792 132.737 220.289 134.318 218.434 137.592C216.578 140.867 214.235 144.132 214.235 144.132C214.235 144.132 219.064 146.04 223.778 140.858C228.163 136.028 226.77 133.106 226.77 133.106Z" fill="#FED81D"/>
<path d="M229.672 134.602C225.18 135.762 223.077 137.515 222.269 142.783C221.461 148.051 221.745 150.466 221.168 152.451C221.168 152.451 226.92 151.162 229.672 146.161C232.291 141.374 231.625 138.306 229.672 134.602Z" fill="#FED81D"/>
<path d="M235.336 106.482C235.336 106.482 231.004 115.592 230.897 123.232C230.83 124.96 231.095 126.685 231.679 128.32L226.876 128.861C222.766 132.685 215.336 131.37 217.999 126.489C213.56 129.17 207.745 125.501 210.631 121.625C207.177 122.415 205.42 117.01 209.867 115.609C206.165 115.222 205.428 108.828 210.444 108.459C210.007 108.019 209.706 107.469 209.578 106.871C209.449 106.274 209.498 105.653 209.717 105.081C209.937 104.509 210.32 104.009 210.82 103.638C211.321 103.267 211.92 103.04 212.548 102.985C213.071 102.97 213.591 103.07 214.067 103.279C214.544 103.487 214.966 103.798 215.3 104.188C213.152 96.6938 222.233 94.3046 225.021 98.2407C225.509 95.0695 231.652 94.7429 232.566 98.8337C237.2 96.3586 240.219 102.374 235.336 106.482Z" fill="#683F1D"/>
<path d="M231.714 128.32L226.912 128.861C222.801 132.685 215.371 131.37 218.034 126.489C213.596 129.17 207.781 125.501 210.666 121.625C207.213 122.415 205.455 117.01 209.903 115.609C206.201 115.222 205.464 108.828 210.48 108.459C210.042 108.019 209.742 107.469 209.613 106.871C209.485 106.274 209.533 105.653 209.753 105.081C209.973 104.509 210.355 104.009 210.856 103.638C211.357 103.267 211.956 103.04 212.584 102.985C212.264 105.631 213.471 109.378 216.135 109.636C212.495 110.934 212.521 115.111 216.135 116.58C213.871 119.012 217.262 122.433 220.094 120.508C219.987 123.189 224.151 127.555 230.88 123.189C230.824 124.935 231.107 126.675 231.714 128.32Z" fill="#683F1D"/>
<path d="M258.248 148.55C245.35 150.269 234.093 136.209 234.093 136.209C228.208 138.203 223.645 133.777 225.482 129.334C225.815 128.508 226.377 127.788 227.107 127.254C227.697 126.826 228.38 126.532 229.104 126.394C229.66 126.293 230.229 126.272 230.791 126.334C231.869 126.454 232.899 126.835 233.784 127.444C234.669 128.053 235.38 128.868 235.851 129.815C236.259 130.502 239.002 130.382 237.777 127.357C236.703 124.727 235.531 124.925 235.531 124.925C237.307 124.384 235.895 120.533 233.756 121.083C235.531 120.344 236.153 117.087 234.164 115.927C236.304 115.815 238.647 114.99 237.777 111.836C238.171 112.297 238.694 112.637 239.283 112.815C239.873 112.993 240.503 113.001 241.097 112.839C241.691 112.677 242.224 112.352 242.631 111.902C243.037 111.453 243.3 110.898 243.388 110.307C243.783 110.68 244.281 110.934 244.822 111.038C245.363 111.142 245.924 111.092 246.437 110.894C246.949 110.695 247.391 110.357 247.708 109.92C248.026 109.484 248.206 108.967 248.226 108.433C248.492 109.593 249.895 109.937 251.005 109.293C253.509 111.94 255.739 114.818 257.663 117.886L257.734 117.998C258.817 119.631 259.838 121.281 260.761 122.923C267.765 135.358 269.603 147.029 258.248 148.55Z" fill="#B25E47"/>
<path d="M242.66 125.088C242.189 126.627 239.304 127.151 236.224 126.266C233.143 125.38 231.013 123.412 231.483 121.874C231.954 120.336 234.839 119.82 237.919 120.705C241 121.59 243.13 123.558 242.66 125.088Z" fill="#914839"/>
<path d="M260.814 122.983C259.545 123.842 258.293 124.117 257.476 123.567C256.242 122.759 256.42 120.405 257.787 118.058C258.87 119.691 259.891 121.341 260.814 122.983Z" fill="#914839"/>
<path d="M230.8 126.386C230.238 126.324 229.669 126.344 229.113 126.446C228.389 126.584 227.706 126.877 227.116 127.305C223.014 115.635 233.827 109.696 233.827 109.696C229.708 115.497 230.347 123.326 230.8 126.386Z" fill="white"/>
<path d="M251.883 117.766C251.882 117.994 251.95 118.216 252.078 118.406C252.207 118.597 252.391 118.745 252.608 118.834C252.824 118.923 253.062 118.948 253.293 118.906C253.524 118.864 253.737 118.757 253.905 118.598C254.073 118.439 254.188 118.235 254.237 118.013C254.285 117.79 254.265 117.559 254.178 117.348C254.091 117.137 253.941 116.955 253.748 116.826C253.554 116.697 253.326 116.627 253.091 116.623C252.933 116.62 252.777 116.647 252.631 116.703C252.484 116.759 252.351 116.842 252.239 116.949C252.126 117.055 252.037 117.182 251.976 117.323C251.915 117.463 251.883 117.614 251.883 117.766Z" fill="#683F1D"/>
<path d="M244.142 120.198C244.142 120.426 244.212 120.649 244.343 120.838C244.474 121.027 244.659 121.175 244.877 121.262C245.094 121.349 245.333 121.372 245.564 121.328C245.795 121.283 246.007 121.174 246.173 121.013C246.34 120.851 246.453 120.646 246.499 120.423C246.545 120.2 246.521 119.968 246.431 119.758C246.341 119.547 246.189 119.367 245.993 119.241C245.797 119.114 245.567 119.047 245.332 119.047C245.176 119.047 245.021 119.076 244.877 119.134C244.732 119.192 244.601 119.277 244.491 119.384C244.38 119.491 244.293 119.618 244.233 119.758C244.173 119.897 244.142 120.047 244.142 120.198Z" fill="#683F1D"/>
<path d="M252.061 108.201C251.843 108.66 251.495 109.05 251.058 109.327C249.948 110.006 248.546 109.662 248.279 108.467C248.259 109.001 248.079 109.518 247.762 109.955C247.444 110.392 247.002 110.73 246.49 110.928C245.978 111.127 245.417 111.177 244.876 111.072C244.334 110.968 243.836 110.714 243.441 110.341C243.354 110.933 243.091 111.487 242.684 111.937C242.277 112.386 241.745 112.712 241.15 112.874C240.556 113.036 239.926 113.027 239.337 112.849C238.747 112.671 238.224 112.331 237.831 111.871C238.718 115.025 236.357 115.85 234.218 115.961C236.206 117.104 235.54 120.362 233.809 121.118C235.904 120.568 237.36 124.418 235.585 124.959C235.585 124.959 236.757 124.762 237.831 127.391C239.056 130.416 236.313 130.537 235.904 129.849C235.317 128.645 234.342 127.659 233.125 127.039C231.907 126.419 230.515 126.198 229.158 126.412C228.572 124.042 228.455 121.587 228.811 119.176C229.366 115.547 231.141 112.197 233.863 109.645C231.945 106.706 235.558 102.864 238.576 105.081C238.186 102.409 242.944 100.716 244.746 103.913C245.785 101.042 250.197 102.795 249.7 104.918C251.138 104.162 253.091 106.139 252.061 108.201Z" fill="#683F1D"/>
<path d="M247.649 116.623C250.57 122.682 254.999 119.365 256.118 123.937" stroke="#914839" stroke-width="0.75" stroke-linecap="round" stroke-linejoin="round"/>
<path d="M245.181 126.764C250.241 128.148 253.774 127.245 254.609 126.764C254.609 126.764 255.106 131.113 250.579 130.76C249.358 130.733 248.178 130.331 247.208 129.613C246.238 128.895 245.528 127.897 245.181 126.764Z" fill="white" stroke="#914839" stroke-width="0.75" stroke-linecap="round" stroke-linejoin="round"/>
<path d="M228.137 131.74C228.767 128.655 233.738 128.689 234.661 133.106" stroke="#914839" stroke-width="0.75" stroke-linecap="round" stroke-linejoin="round"/>
<path d="M232.14 134.602C229.362 133.906 230.676 129.832 233.712 131.001" stroke="#914839" stroke-width="0.75" stroke-linecap="round" stroke-linejoin="round"/>
<path d="M239.988 117.465C239.766 118.901 245.314 115.798 244.169 114.028C243.024 112.257 240.192 116.073 239.988 117.465Z" fill="#683F1D"/>
<path d="M254.112 112.197C255.266 113.125 248.989 114.423 248.652 112.386C248.315 110.35 252.993 111.295 254.112 112.197Z" fill="#683F1D"/>
<path d="M199.987 236.878C195.468 236.009 190.905 235.378 186.316 234.988" stroke="#914839" stroke-width="0.75" stroke-linecap="round" stroke-linejoin="round"/>
<path d="M186.316 234.988C170.017 233.596 158.032 246.779 165.303 256.885C174.5 269.664 233.374 266.399 239.42 266.253C243.255 266.167 242.971 268.9 248.839 269.432C252.389 269.768 257.822 269.785 258.968 269.226C259.828 268.667 260.523 267.9 260.983 267C260.983 267 264.338 268.298 265.679 264.585C265.679 264.585 269.097 265.333 269.656 260.684C269.656 260.684 271.724 263.176 273.633 262.265C275.817 261.225 276.127 259.687 274.592 257.719C273.056 255.751 266.735 248.798 264.631 248.068C262.527 247.337 246.726 250.044 244.027 249.46C230.471 246.529 211.918 237.171 186.316 234.988Z" fill="#B25E47"/>
<path d="M255.283 269.656C256.527 269.7 257.77 269.555 258.968 269.226C259.828 268.667 260.523 267.9 260.983 267C260.983 267 264.338 268.298 265.679 264.585C265.679 264.585 269.097 265.333 269.656 260.684C269.656 260.684 271.724 263.176 273.633 262.265C275.817 261.225 276.127 259.687 274.592 257.719C273.056 255.751 266.735 248.798 264.631 248.068" stroke="#914839" stroke-width="0.75" stroke-linecap="round" stroke-linejoin="round"/>
<path d="M270.091 261.148L265.279 256.043" stroke="#914839" stroke-width="0.75" stroke-linecap="round" stroke-linejoin="round"/>
<path d="M265.679 264.585L260.637 261.492" stroke="#914839" stroke-width="0.75" stroke-linecap="round" stroke-linejoin="round"/>
<path d="M260.983 267L257.538 265.978" stroke="#914839" stroke-width="0.75" stroke-linecap="round" stroke-linejoin="round"/>
<path d="M171.499 84.9975L167.877 85.3585L163.598 85.8054L166.501 82.8662L169.182 80.1591L171.499 84.9975Z" fill="white"/>
<path d="M157.34 189.62C168.578 196.496 178.814 188.899 181.637 175.062C185.8 154.634 189.378 103.028 189.378 103.028C189.378 103.028 195.086 91.0649 196.906 86.7421C198.726 82.4193 198.433 78.5778 195.787 77.4692C195.787 77.4692 193.124 69.4768 189.023 69.2276C188.235 68.82 187.412 68.4779 186.564 68.2049C184.513 67.801 180.74 69.6315 179.746 70.6456C178.752 71.6597 182.054 72.7254 183.936 72.4246C185.818 72.1238 187.194 76.7215 186.351 78.6638C185.508 80.606 181.912 84.5077 180.634 83.4936C179.356 82.4795 178.956 78.9732 179.48 76.2317C180.004 73.4902 179.64 72.1152 177.749 73.1808C175.858 74.2465 172.192 83.1326 172.609 84.7569C173.026 86.3811 175.441 93.0844 175.6 94.2102C175.76 95.3361 157.313 154.11 153.673 164.311C150.034 174.512 149.395 184.765 157.34 189.62Z" fill="#FEBD9D"/>
<path d="M195.787 77.4692C196.003 78.838 196.127 80.2187 196.16 81.6029" stroke="#F4A789" stroke-width="0.75" stroke-linecap="round" stroke-linejoin="round"/>
<path d="M190.949 75.2004C191.481 77.0904 191.779 79.0348 191.837 80.9927" stroke="#F4A789" stroke-width="0.75" stroke-linecap="round" stroke-linejoin="round"/>
<path d="M169.182 80.1591L175.21 76.8419C173.825 79.5919 172.547 83.0897 172.547 84.4475L171.472 84.9975C170.993 84.8263 170.554 84.5651 170.179 84.229C169.804 83.8929 169.502 83.4884 169.289 83.0389C169.076 82.5893 168.957 82.1035 168.939 81.6093C168.921 81.1151 169.003 80.6223 169.182 80.1591Z" fill="#683F1D"/>
<path d="M167.877 85.3585L163.598 85.8054L166.501 82.8662L167.877 85.3585Z" fill="#683F1D"/>
<path d="M172.609 84.7655C172.192 83.1412 175.867 74.2465 177.749 73.1894C179.143 72.3988 179.711 72.9316 179.702 74.3754C179.686 74.9994 179.612 75.6207 179.48 76.2317C179.304 77.1902 179.227 78.1632 179.249 79.1364C179.249 79.2654 179.249 79.3943 179.249 79.5146V79.8841C179.249 80.0646 179.249 80.2451 179.311 80.4169L179.391 80.9326C179.475 81.8993 179.898 82.8092 180.59 83.5108C181.903 84.5334 185.472 80.6662 186.307 78.6982C186.482 78.2508 186.569 77.7757 186.564 77.2973" stroke="#F4A789" stroke-width="0.75" stroke-linecap="round" stroke-linejoin="round"/>
<path d="M183.137 72.4761C181.255 72.4761 178.876 71.5308 179.737 70.6456C180.74 69.6315 184.513 67.801 186.564 68.2049C187.411 68.4759 188.234 68.8151 189.023 69.219" stroke="#F4A789" stroke-width="0.75" stroke-linecap="round" stroke-linejoin="round"/>
<path d="M193.977 73.4816C194.68 74.7556 195.274 76.0836 195.752 77.452C197.474 78.1739 198.202 80.0302 197.989 82.4795" stroke="#F4A789" stroke-width="0.75" stroke-linecap="round" stroke-linejoin="round"/>
<path d="M197.794 71.5566L193.976 73.4988L186.608 77.2716L179.409 80.9326C179.145 79.3748 179.16 77.7846 179.453 76.2317C179.585 75.6207 179.659 74.9994 179.675 74.3754L183.111 72.4761L189.023 69.219L194.82 66.0392L197.794 71.5566Z" fill="#683F1D"/>
<path d="M193.746 66.0392C193.417 67.4916 194.483 71.7371 197.243 72.5879L199.019 71.5222L195.601 65.0681L193.746 66.0392Z" fill="white"/>
<path d="M198.708 67.4658C199.738 69.2878 199.96 71.0753 199.214 71.4706C198.468 71.866 197.03 70.7144 196.009 68.8924C194.988 67.0705 194.758 65.283 195.503 64.8877C196.249 64.4923 197.678 65.6439 198.708 67.4658Z" fill="#683F1D"/>
<path d="M172.609 84.7655C172.192 83.1412 175.867 74.2465 177.749 73.1894C179.143 72.3988 179.711 72.9316 179.702 74.3754C179.686 74.9994 179.612 75.6207 179.48 76.2317C179.304 77.1902 179.227 78.1632 179.249 79.1364C179.249 79.2654 179.249 79.3943 179.249 79.5146V79.8841C179.249 80.0646 179.249 80.2451 179.311 80.4169L179.391 80.9326C179.475 81.8993 179.898 82.8092 180.59 83.5108C181.903 84.5334 185.472 80.6662 186.307 78.6982C186.482 78.2508 186.569 77.7757 186.564 77.2973" stroke="#F4A789" stroke-width="0.75" stroke-linecap="round" stroke-linejoin="round"/>
<path d="M72.3661 173.713C69.765 184.885 51.7707 181.31 50.7587 175.586C49.7467 169.863 51.3801 168.445 52.765 157.96C53.9012 149.366 68.9749 149.203 71.647 154.97C72.0775 155.9 72.1774 156.943 71.9311 157.934C71.3697 160.862 71.3547 163.863 71.8867 166.795C72.2684 169.545 72.7833 171.882 72.3661 173.713Z" fill="#FEBD9D"/>
<path d="M71.9311 157.934C71.3697 160.862 71.3547 163.863 71.8867 166.795C64.1989 164.646 62.8585 156.293 62.8585 156.293L71.647 154.97C72.0775 155.9 72.1774 156.943 71.9311 157.934Z" fill="#F4A789"/>
<path d="M26.1863 252.795L43.497 259.223C43.497 259.223 41.0913 278.594 40.9049 278.31C40.7184 278.026 11.7695 275.105 11.7695 275.105L26.1863 252.795Z" fill="#FEBD9D"/>
<path d="M0.97467 264.07C3.3893 272.518 9.44363 275.594 15.2405 275.405C21.0374 275.216 29.0625 272.269 32.0453 263.408C34.3268 256.628 29.3821 248.498 29.3821 248.498L0.97467 264.07Z" fill="white"/>
<path d="M33.9273 364.026C33.9273 364.026 36.1466 352.304 31.4505 332.908C29.4428 325.332 28.5463 317.521 28.7873 309.704C29.3288 297.741 33.155 284.377 42.5738 266.201L102.94 263.803C105.638 271.933 108.088 279.404 110.29 286.217C116.975 306.842 121.529 321.71 124.716 331.765C128.959 345.137 136.132 364.035 136.132 364.035L33.9273 364.026Z" fill="#FED81D"/>
<path d="M110.326 286.225C103.96 304.135 94.9056 312.248 71.4872 303.903C50.4302 296.409 42.7069 291.012 28.8228 309.712C29.3643 297.75 33.1905 284.386 42.6093 266.21L102.975 263.812C105.674 271.942 108.124 279.413 110.326 286.225Z" fill="#FED81D"/>
<path d="M104.706 233.579C101.377 246.083 104.458 259.661 105.807 262.635C107.156 265.608 106.056 267.645 104.094 267.997C102.132 268.35 44.296 270.026 41.7038 269.665C39.1116 269.304 38.2683 267.404 38.2683 265.264C38.2683 263.125 33.7142 248.077 31.4949 242.061C31.4949 242.061 31.2552 258.853 26.4526 263.855C21.6499 268.857 10.4734 270.885 3.45144 267.198C2.14198 266.396 1.21093 265.127 0.859264 263.666C-1.80393 255.639 2.31515 237.308 5.17364 224.203C6.30994 218.943 7.95224 212.369 10.0473 205.803C14.264 192.577 20.3272 179.359 27.8019 176.996C44.4735 171.728 56.6088 173.782 65.4507 172.983C68.2026 172.725 70.8658 172.415 73.4403 172.123H73.5379C87.5552 170.404 98.2879 168.832 103.614 177.554C104.438 178.938 105.088 180.413 105.55 181.946C108.843 192.465 107.476 199.4 106.757 209.112C106.757 209.498 106.712 209.885 106.686 210.28C107.372 218.099 106.702 225.973 104.706 233.579Z" fill="#F178B6"/>
<path d="M31.4949 242.026C31.4949 242.026 31.2552 258.819 26.4526 263.821C21.6499 268.822 10.4734 270.851 3.45143 267.164C2.14197 266.361 1.21092 265.093 0.859253 263.632C23.4698 270.137 30.9978 246.848 24.9701 242.551C19.1021 238.365 19.1909 227.142 22.7774 221.306C25.1654 228.001 29.6573 236.526 31.4949 242.026Z" fill="#F178B6"/>
<path d="M103.605 177.469C97.2048 182.195 91.8429 188.245 89.6858 196.092C88.2299 201.368 85.8685 205.485 82.6815 208.407C74.0439 216.365 59.3253 215.523 40.2835 205.15C27.1006 197.982 18.0902 199.503 10.0473 205.743C14.264 192.517 20.3272 179.299 27.8019 176.936C44.4736 171.668 56.6089 173.722 65.4507 172.922C68.2026 172.665 70.8658 172.355 73.4403 172.063H73.5379C87.5463 170.379 98.279 168.78 103.605 177.469Z" fill="#F178B6"/>
<path d="M21.2505 215.342C21.5121 217.385 22.0247 219.39 22.7774 221.315C25.1654 228.001 29.6573 236.526 31.4949 242.026" stroke="#EF5DA8" stroke-width="0.75" stroke-linecap="round" stroke-linejoin="round"/>
<path d="M167.46 192.68C163.794 195.043 143.065 200.646 126.74 205.184C120.203 207.028 113.514 208.325 106.748 209.06C100.778 209.73 94.7542 209.836 88.7625 209.378C86.7003 209.212 84.6551 208.887 82.646 208.407C57.177 202.443 61.2339 174.194 73.3959 172.046H73.4935C90.8459 169.086 108.346 167.006 125.923 165.815C133.54 165.36 141.316 165.153 148.818 165.342C177.988 166.107 171.126 190.359 167.46 192.68Z" fill="#F178B6"/>
<path d="M167.46 192.68C163.794 195.043 143.065 200.646 126.74 205.184C120.203 207.028 113.514 208.325 106.748 209.06C100.778 209.73 94.7541 209.836 88.7625 209.378" stroke="#EF5DA8" stroke-width="0.75" stroke-linecap="round" stroke-linejoin="round"/>
<path d="M125.958 165.841C119.256 168.531 110.778 172.192 103.605 177.503C97.2048 182.23 91.8429 188.28 89.6857 196.126C88.2299 201.403 85.8685 205.519 82.6815 208.441C57.2125 202.477 61.2694 174.229 73.4314 172.08H73.529C90.8813 169.117 108.382 167.035 125.958 165.841Z" fill="#F178B6"/>
<path d="M146.119 165.308C150.611 163.641 155.502 163.976 161.752 166.864C169.067 170.25 175.405 178.955 172.316 190.927C171.81 192.86 164.033 196.882 162.746 195.997C161.459 195.112 171.65 170.593 146.119 165.308Z" fill="white"/>
<path d="M55.1263 158.94C70.5462 162.472 78.3316 160.951 80.3202 153.087C82.3087 145.224 74.0261 133.27 74.0261 133.27L74.6831 128.973C72.844 128.152 71.0485 127.243 69.3034 126.249C68.4689 125.604 65.7525 118.944 63.2491 118.299C60.7457 117.655 43.1952 126.403 48.4151 140.841C53.6349 155.279 55.1263 158.94 55.1263 158.94Z" fill="#FEBD9D"/>
<path d="M70.0935 137.369C69.5609 139.002 66.7823 139.621 63.8794 138.744C60.9765 137.868 59.0679 135.822 59.5916 134.181C60.1154 132.539 62.9029 131.921 65.8058 132.806C68.7086 133.691 70.6261 135.728 70.0935 137.369Z" fill="#F4A789"/>
<path d="M73.9995 133.27L74.6564 128.973C72.8174 128.152 71.0219 127.243 69.2768 126.249" stroke="#F4A789" stroke-width="0.75" stroke-linecap="round" stroke-linejoin="round"/>
<path d="M61.3848 189.139C54.1321 190.858 52.3389 183.751 52.3389 183.751C46.4887 189.62 39.5733 187.936 37.9753 184.834C37.9753 184.834 32.0187 187.214 27.2515 183.751C20.7001 178.998 24.9701 171.925 24.9701 171.925C18.099 170.207 19.3596 163.564 23.3011 160.753L23.887 160.358C27.9884 157.78 35.3565 156.061 32.649 150.905C29.826 145.413 27.509 137.85 34.7973 133.622C34.7973 133.622 35.1701 125.466 40.4077 122.794C45.6454 120.121 45.9916 119.064 46.107 117.551C46.5065 111.983 51.9394 106.723 58.1002 110.822C58.2955 110.951 58.4997 111.089 58.695 111.235C65.2909 110.599 67.0308 116.606 65.9212 119.502C68.2825 126.996 62.6543 132.617 64.2522 135.238C66.081 138.229 64.6872 141.804 64.6872 141.804C61.9619 137.618 58.6063 136.295 56.2981 139.879C54.425 142.801 55.9519 146.625 62.0151 150.269C68.5045 154.17 65.4329 159.181 64.0125 162.953C63.1837 165.162 62.9054 167.529 63.2 169.862C63.4946 172.194 64.354 174.427 65.7081 176.377C68.8418 180.7 68.6376 187.455 61.3848 189.139Z" fill="#7F542D"/>
<path d="M61.3848 189.139C54.1321 190.858 52.3389 183.751 52.3389 183.751C46.4887 189.62 39.5733 187.936 37.9753 184.834C37.9753 184.834 32.0187 187.214 27.2515 183.751C20.7001 178.998 24.9701 171.925 24.9701 171.925C18.099 170.207 19.3596 163.564 23.3011 160.753L23.887 160.358C26.6479 167.86 31.6724 171.917 36.7947 170.748C43.6036 169.218 47.4475 165.592 53.8214 169.39C60.1953 173.189 62.1039 155.468 52.765 152.795C43.426 150.123 41.6328 134.92 49.7112 133.029C55.7566 131.654 61.1896 119.82 58.1002 110.745C58.2955 110.874 58.4997 111.011 58.695 111.158C65.2909 110.522 67.0308 116.529 65.9212 119.425C68.2825 126.919 62.6543 132.539 64.2522 135.16C66.081 138.151 64.6872 141.726 64.6872 141.726C61.9619 137.541 58.6063 136.218 56.2981 139.801C54.425 142.723 55.9519 146.547 62.0151 150.191C68.5045 154.093 65.4329 159.103 64.0125 162.876C63.1837 165.085 62.9054 167.452 63.2 169.784C63.4946 172.117 64.354 174.349 65.7081 176.3C68.8418 180.7 68.6376 187.455 61.3848 189.139Z" fill="#683F1D"/>
<path d="M67.2794 130.434C67.2794 130.66 67.3486 130.881 67.4784 131.069C67.6081 131.257 67.7925 131.403 68.0082 131.49C68.224 131.576 68.4614 131.599 68.6904 131.555C68.9194 131.511 69.1298 131.402 69.2949 131.242C69.4601 131.082 69.5725 130.878 69.6181 130.657C69.6636 130.435 69.6402 130.205 69.5509 129.996C69.4615 129.788 69.3102 129.609 69.116 129.483C68.9219 129.358 68.6936 129.291 68.4601 129.291C68.3047 129.29 68.1506 129.318 68.0069 129.375C67.8631 129.433 67.7324 129.517 67.6226 129.623C67.5127 129.729 67.4258 129.856 67.3669 129.995C67.3079 130.134 67.2782 130.283 67.2794 130.434Z" fill="#683F1D"/>
<path d="M24.9435 171.934C28.308 165.48 31.3706 165.669 34.2291 163.538C37.0876 161.406 38.3393 156.972 37.7801 154.944" stroke="#BF8228" stroke-width="0.75" stroke-linecap="round" stroke-linejoin="round"/>
<path d="M37.9753 184.834C37.0671 183.406 36.6626 181.732 36.8227 180.062C36.9828 178.393 37.6989 176.819 38.8631 175.578" stroke="#BF8228" stroke-width="0.75" stroke-linecap="round" stroke-linejoin="round"/>
<path d="M52.3389 183.751C51.9047 182.659 51.7127 181.491 51.7754 180.323C51.8381 179.155 52.1541 178.012 52.7028 176.97" stroke="#BF8228" stroke-width="0.75" stroke-linecap="round" stroke-linejoin="round"/>
<path d="M46.8438 123.189C50.7853 122.33 51.1671 119.605 52.3477 117.362C53.5284 115.119 55.3572 111.647 58.695 111.175" stroke="#BF8228" stroke-width="0.75" stroke-linecap="round" stroke-linejoin="round"/>
<path d="M65.9212 119.442C64.7227 116.864 60.9232 113.779 57.3989 116.864" stroke="#BF8228" stroke-width="0.75" stroke-linecap="round" stroke-linejoin="round"/>
<path d="M59.0767 144.657C58.9968 141.425 62.2903 140.669 64.847 143.136" stroke="#F4A789" stroke-width="0.75" stroke-linecap="round" stroke-linejoin="round"/>
<path d="M63.5065 146.058C60.9321 146.058 60.8433 142.319 64.1191 142.534" stroke="#F4A789" stroke-width="0.75" stroke-linecap="round" stroke-linejoin="round"/>
<path d="M71.4872 138.1C71.9616 138.682 72.5977 139.122 73.321 139.367C74.0443 139.612 74.8247 139.652 75.5708 139.483" stroke="#F4A789" stroke-width="0.75" stroke-linecap="round" stroke-linejoin="round"/>
<path d="M58.6772 147.776C60.6303 149.298 64.1546 149.083 64.1546 149.083" stroke="#F4A789" stroke-width="0.75" stroke-linecap="round" stroke-linejoin="round"/>
<path d="M66.2585 150.905C67.6411 150.905 68.7619 149.82 68.7619 148.481C68.7619 147.143 67.6411 146.058 66.2585 146.058C64.8759 146.058 63.7551 147.143 63.7551 148.481C63.7551 149.82 64.8759 150.905 66.2585 150.905Z" fill="white"/>
<path d="M64.3587 129.342C65.5838 130.116 68.5311 124.633 66.223 123.129C63.9149 121.625 62.7076 128.303 64.3587 129.342Z" fill="#7F542D"/>
<path d="M561.498 359.669H10.953C6.10416 359.669 2.17337 363.474 2.17337 368.168V369.5C2.17337 374.195 6.10416 378 10.953 378H561.498C566.347 378 570.278 374.195 570.278 369.5V368.168C570.278 363.474 566.347 359.669 561.498 359.669Z" fill="#DDDDDD"/>
<path d="M19.2001 378C33.7589 371.262 55.3574 369.776 71.816 378" stroke="#DDDDDD" stroke-width="0.75" stroke-linecap="round" stroke-linejoin="round"/>
<path d="M14.1755 359.66C28.5302 367.395 38.0733 366.768 55.7835 366.536C68.9752 366.372 84.8568 372.878 95.4297 377.991" stroke="#DDDDDD" stroke-width="0.75" stroke-linecap="round" stroke-linejoin="round"/>
<path d="M82.309 359.66C92.7221 370.996 99.9482 372.414 103.446 369.492C107.157 366.39 110.974 365.547 114.915 368.822C119.478 372.62 125.826 364.929 129.394 359.66" stroke="#DDDDDD" stroke-width="0.75" stroke-linecap="round" stroke-linejoin="round"/>
<path d="M122.914 378C127.122 374.244 134.623 369.604 146.306 368.83C160.154 367.971 177.749 374.141 187.141 378" stroke="#DDDDDD" stroke-width="0.75" stroke-linecap="round" stroke-linejoin="round"/>
<path d="M168.961 359.66C185.206 367.911 202.961 372.74 217.306 368.822C231.306 365.014 264.738 369.758 276.9 359.66" stroke="#DDDDDD" stroke-width="0.75" stroke-linecap="round" stroke-linejoin="round"/>
<path d="M230.578 378C240.982 372.268 257.21 368.761 269.833 378" stroke="#DDDDDD" stroke-width="0.75" stroke-linecap="round" stroke-linejoin="round"/>
<path d="M287.712 378C307.056 363.442 345.672 360.812 377.924 368.753C416.096 378.163 433.212 367.3 440.145 359.669" stroke="#DDDDDD" stroke-width="0.75" stroke-linecap="round" stroke-linejoin="round"/>
<path d="M322.494 378C336.502 371.907 355.34 370.652 375.234 378" stroke="#DDDDDD" stroke-width="0.75" stroke-linecap="round" stroke-linejoin="round"/>
<path d="M444.601 378C468.055 367.429 486.822 368.658 504.221 378" stroke="#DDDDDD" stroke-width="0.75" stroke-linecap="round" stroke-linejoin="round"/>
<path d="M477.687 359.66C516.33 372.225 548.306 381.953 569.372 364.903" stroke="#DDDDDD" stroke-width="0.75" stroke-linecap="round" stroke-linejoin="round"/>
<path d="M508.509 359.66C528.119 370.833 551.023 369.973 565.12 360.666" stroke="#DDDDDD" stroke-width="0.75" stroke-linecap="round" stroke-linejoin="round"/>
</svg>
