<svg width="18" height="18" viewBox="0 0 18 18" fill="none" xmlns="http://www.w3.org/2000/svg">
<path d="M18 4V2C18 0.9 17.1 0 16 0H2C0.9 0 0 0.9 0 2V16C0 17.1 0.9 18 2 18H16C17.1 18 18 17.1 18 16V14C18 14 18 12.55 18 12L18 10C18 8 18 8.55 18 8V6C18 6 18 4.55 18 4ZM15 16H3C2.45 16 2 15.55 2 15V3C2 2.45 2.45 2 3 2H15C15.55 2 16 2.45 16 3V15C16 15.55 15.55 16 15 16ZM4.5 11.5H8.5C8.78 11.5 9 11.72 9 12V13.5C9 13.78 8.78 14 8.5 14H4.5C4.22 14 4 13.78 4 13.5V12C4 11.72 4.22 11.5 4.5 11.5ZM10.5 4H13.5C13.78 4 14 4.22 14 4.5V6.5C14 6.78 13.78 7 13.5 7H10.5C10.22 7 10 6.78 10 6.5V4.5C10 4.22 10.22 4 10.5 4ZM4.5 4H8.5C8.78 4 9 4.22 9 4.5V6.5C9 6.78 8.78 7 8.5 7H4.5C4.22 7 4 6.78 4 6.5V4.5C4 4.22 4.22 4 4.5 4ZM10.5 8H13.5C13.78 8 14 8.22 14 8.5V13.5C14 13.78 13.78 14 13.5 14H10.5C10.22 14 10 13.78 10 13.5V8.5C10 8.22 10.22 8 10.5 8Z" fill="#F05EA9"/>
<path d="M8.5 7.75H4.5C4.22 7.75 4 7.97 4 8.25V10.25C4 10.53 4.22 10.75 4.5 10.75H8.5C8.78 10.75 9 10.53 9 10.25V8.25C9 7.97 8.78 7.75 8.5 7.75Z" fill="#F05EA9"/>
</svg>
